<svg width="36" height="36" viewBox="0 0 36 36" fill="none" xmlns="http://www.w3.org/2000/svg">
<path d="M18 36C27.9284 36 36 27.9284 36 18C36 8.07158 27.9284 0 18 0C8.07158 0 0 8.07158 0 18C0 27.9284 8.07158 36 18 36ZM9.01895 16.4463H23.2295L19.5537 12.7705C18.9474 12.1642 18.9474 11.1789 19.5537 10.5726C19.8568 10.2695 20.2737 10.1179 20.6526 10.1179C21.0695 10.1179 21.4484 10.2695 21.7516 10.5726L28.08 16.9011C28.3832 17.2042 28.5347 17.5832 28.5347 18C28.5347 18.4168 28.3832 18.7958 28.08 19.0989L21.7516 25.4274C21.1453 26.0337 20.16 26.0337 19.5537 25.4274C18.9474 24.8211 18.9474 23.8358 19.5537 23.2295L23.2295 19.5537H9.01895C8.14737 19.5537 7.46526 18.8716 7.46526 18C7.46526 17.1284 8.14737 16.4463 9.01895 16.4463Z" fill="#DDDDDD"/>
</svg>
