<svg width="320" height="365" viewBox="0 0 320 365" fill="none" xmlns="http://www.w3.org/2000/svg">
<g opacity="0.1">
<path d="M267.758 77.4888L259.616 72.8179L264.098 71.8732L268.547 74.9801L267.758 77.4888Z" fill="#BFBFBF"/>
<path d="M253.515 35.6918C253.504 23.0645 245.783 17.2494 236.294 22.7181L222.261 30.8004C212.762 36.2691 205.041 51.0062 205.041 63.6335C205.041 64.1479 205.051 64.6622 205.083 65.145C205.083 65.4284 205.115 65.6699 205.125 65.9323C205.136 66.1842 205.167 66.4256 205.199 66.667C205.23 66.9504 205.262 67.2338 205.304 67.5067C205.525 69.1127 205.914 70.5612 206.408 71.8733C206.629 72.3981 206.861 72.8915 207.113 73.3638C207.229 73.6157 207.366 73.8571 207.513 74.0671C207.555 74.1405 207.608 74.214 207.65 74.2875C207.892 74.6864 208.155 75.0747 208.46 75.4001C208.628 75.5891 208.786 75.7885 208.965 75.9669L209.501 76.4918C209.701 76.6387 209.88 76.8172 210.069 76.9641C210.259 77.1111 210.458 77.258 210.669 77.3735C210.879 77.4889 211.09 77.6149 211.3 77.7304C212.089 78.1712 212.962 78.4441 213.877 78.6016C213.951 78.6016 214.025 78.6121 214.088 78.6436C214.33 78.6645 214.551 78.696 214.792 78.696C215.045 78.7275 215.297 78.717 215.56 78.717C216.202 78.7275 216.875 78.654 217.57 78.4966C217.959 78.4126 218.348 78.3287 218.737 78.2027V78.2237C219.873 77.8878 221.041 77.3735 222.261 76.6702L236.294 68.5879C237.22 68.0526 238.156 67.4228 239.05 66.7195C239.04 66.5516 239.019 66.3941 239.008 66.2472C238.998 65.9533 238.977 65.7433 238.977 65.5649C238.945 65.145 238.935 64.7147 238.935 64.2738C238.935 53.3994 245.415 40.7721 253.515 35.6918Z" fill="#BFBFBF"/>
<path d="M255.892 26.6018C255.892 26.6018 247.687 21.8888 247.74 21.9203C247.792 21.9518 248.56 27.5779 248.56 27.5779L254.62 28.2917L255.892 26.6018Z" fill="#BFBFBF"/>
<path d="M218.222 81.6245L210.679 77.3629L215.213 75.4105L218.222 81.6245Z" fill="#BFBFBF"/>
<path d="M222.261 76.6492C222.261 78.3286 221.788 82.0969 219.379 85.2983C219.042 85.7392 219.558 86.1276 219.947 85.9386C221.21 85.2983 222.672 84.3326 224.428 82.3278C227.027 79.3678 228.689 75.4001 229.278 72.608L222.261 76.6492Z" fill="#BFBFBF"/>
<path d="M219.474 85.9176L227.626 90.599C227.626 90.599 232.202 86.7468 232.202 78.9479L223.355 78.3391C223.355 78.3391 223.145 83.4194 219.474 85.9176Z" fill="#BFBFBF"/>
<path d="M241.186 62.9722C241.186 63.3605 241.196 63.7384 241.217 64.1058C241.217 64.3157 241.239 64.4942 241.249 64.7041C241.26 64.893 241.281 65.0715 241.302 65.2499C241.323 65.4598 241.344 65.6698 241.375 65.8797C241.512 66.8769 241.733 67.8006 242.027 68.6193C242.07 68.7872 242.133 68.9342 242.196 69.0916C242.269 69.3016 242.354 69.5115 242.459 69.7004C242.553 69.8999 242.638 70.0888 242.743 70.2673C242.837 70.4562 242.932 70.6346 243.048 70.7921C243.079 70.8656 243.111 70.918 243.153 70.96C243.342 71.2539 243.542 71.5268 243.763 71.7892C243.889 71.9467 244.016 72.0831 244.142 72.2091L244.542 72.608C244.678 72.7444 244.826 72.8494 244.973 72.9649C245.12 73.0803 245.267 73.1853 245.425 73.2693C245.583 73.3532 245.73 73.4582 245.899 73.5317C246.056 73.6156 246.214 73.6891 246.383 73.7626C246.551 73.8256 246.719 73.899 246.887 73.9515C246.898 73.962 246.898 73.962 246.898 73.962C247.203 74.0565 247.519 74.13 247.834 74.1824C247.887 74.1929 247.939 74.2034 247.992 74.2139C248.16 74.2349 248.339 74.2559 248.518 74.2559C248.697 74.2874 248.886 74.2769 249.086 74.2664C249.517 74.2769 249.959 74.2244 250.433 74.13C250.769 74.088 251.116 73.9935 251.463 73.8885C252.316 73.6366 253.21 73.2483 254.104 72.7234L264.634 66.6565C265.549 66.1316 266.422 65.5123 267.274 64.7776V64.7671C267.569 64.5257 267.863 64.2528 268.147 63.9798C268.663 63.5075 269.168 62.9722 269.652 62.4054C269.841 62.1954 270.03 61.975 270.23 61.7336C270.409 61.5237 270.577 61.3032 270.756 61.0828C270.798 61.0093 270.861 60.9359 270.914 60.8729C271.598 59.9702 272.25 59.015 272.85 57.9968C273.007 57.7239 273.165 57.4615 273.323 57.1886C273.481 56.9157 273.628 56.6428 273.775 56.3594C273.923 56.076 274.059 55.7926 274.207 55.5197L274.606 54.6589C274.743 54.3755 274.869 54.0711 274.985 53.7982C275.206 53.2944 275.416 52.7696 275.595 52.2657C275.627 52.1713 275.658 52.0768 275.7 51.9823C275.816 51.6884 275.911 51.3945 276.006 51.1006C276.195 50.5233 276.363 49.967 276.531 49.3792C276.9 47.9727 277.194 46.5451 277.363 45.1491C277.394 44.9077 277.415 44.6663 277.436 44.4353C277.457 44.2254 277.478 44.0155 277.489 43.816C277.499 43.5956 277.52 43.3962 277.52 43.1862C277.541 42.7979 277.552 42.399 277.552 42.0106C277.552 32.5323 271.756 28.1552 264.623 32.2594L254.093 38.3264C246.982 42.42 241.186 53.4833 241.186 62.9722Z" fill="#BFBFBF"/>
<path d="M281.328 36.3006L273.239 31.6611L270.188 33.8024L279.624 39.502L281.328 36.3006Z" fill="#BFBFBF"/>
<path d="M253.557 77.9402L245.425 73.2693L251.8 71.3694L253.557 77.9402Z" fill="#BFBFBF"/>
<path d="M263.045 67.5907C263.045 69.2701 265.149 71.5584 267.548 71.9887C267.884 72.0517 267.79 72.7655 267.411 73.0069C266.149 73.8151 264.455 73.9831 262.709 73.7836C259.9 73.4792 258.49 72.2407 257.659 70.6872L263.045 67.5907Z" fill="#ABD5FD"/>
<path d="M244.436 27.3891L230.393 35.4714C220.894 40.9401 213.183 55.6772 213.183 68.3045C213.183 68.8293 213.193 69.3331 213.225 69.816C213.225 70.0994 213.257 70.3408 213.267 70.6032C213.288 70.8551 213.32 71.0965 213.351 71.338C213.383 71.6214 213.414 71.9048 213.456 72.1777C213.688 73.7836 214.077 75.2322 214.571 76.5337C214.792 77.0691 215.024 77.5519 215.276 78.0242C215.392 78.2762 215.529 78.5176 215.676 78.7275C215.729 78.8115 215.771 78.8745 215.813 78.9479C216.055 79.3468 216.318 79.7247 216.612 80.0606C216.781 80.239 216.938 80.4489 217.128 80.6169L217.675 81.1522C217.864 81.2886 218.043 81.4776 218.232 81.6245C218.432 81.761 218.621 81.9184 218.832 82.0339C219.042 82.1389 219.253 82.2648 219.463 82.3803C220.252 82.8211 221.115 83.1045 222.03 83.2515C222.114 83.241 222.177 83.262 222.24 83.2935C222.482 83.3145 222.714 83.346 222.945 83.346C223.208 83.3775 223.46 83.367 223.713 83.367C224.365 83.367 225.038 83.2935 225.722 83.1465C226.111 83.0521 226.501 82.9786 226.9 82.8421V82.8631C228.036 82.5377 229.204 82.0129 230.414 81.3201C230.414 82.9996 229.94 86.7678 227.531 89.9693C227.195 90.4101 227.71 90.7985 228.1 90.6096C229.362 89.9693 230.824 89.0036 232.581 86.9987C235.179 84.0387 236.841 80.0711 237.43 77.279L236.42 77.8563L244.447 73.2273C245.194 72.797 245.951 72.3036 246.687 71.7578C246.624 71.4849 246.582 71.212 246.551 70.9496C246.519 70.7711 246.488 70.5087 246.467 70.2358C246.435 70.0364 246.403 69.795 246.393 69.5326L246.382 69.4066C246.361 69.2282 246.351 69.0602 246.351 68.8713C246.33 68.4829 246.319 68.063 246.319 67.6432C246.319 57.0207 252.652 45.0442 260.752 40.3942L261.646 39.8694C261.436 27.578 253.799 21.9939 244.436 27.3891Z" fill="#E7E7E7"/>
<path d="M272.786 36.9199L262.256 42.9869C255.124 47.091 249.328 58.1543 249.328 67.6327C249.328 68.0211 249.338 68.3989 249.359 68.7663C249.359 68.9763 249.38 69.1547 249.391 69.3646C249.402 69.5536 249.423 69.732 249.444 69.9104C249.465 70.1204 249.486 70.3303 249.517 70.5402C249.654 71.5374 249.875 72.4611 250.169 73.2798C250.212 73.4478 250.275 73.5947 250.338 73.7522C250.411 73.9621 250.496 74.172 250.601 74.361C250.695 74.5604 250.78 74.7493 250.885 74.9278C250.979 75.1167 251.074 75.2951 251.19 75.4526C251.221 75.5261 251.253 75.5786 251.295 75.6205C251.484 75.9144 251.684 76.1874 251.905 76.4498C252.031 76.6072 252.158 76.7437 252.284 76.8696L252.684 77.2685C252.82 77.4049 252.968 77.5099 253.115 77.6254C253.262 77.7408 253.409 77.8458 253.567 77.9298C253.725 78.0137 253.872 78.1187 254.041 78.1922C254.198 78.2762 254.356 78.3496 254.525 78.4231C254.693 78.4861 254.861 78.5596 255.029 78.612C255.04 78.6225 255.04 78.6225 255.04 78.6225C255.345 78.717 255.661 78.7905 255.976 78.843C256.029 78.8535 256.081 78.864 256.134 78.8745C256.302 78.8955 256.481 78.9164 256.66 78.9164C256.839 78.9479 257.028 78.9374 257.239 78.9269C257.67 78.9374 258.112 78.885 258.585 78.7905C258.922 78.7485 259.269 78.654 259.616 78.5491C260.468 78.2972 261.362 77.9088 262.256 77.384L265.801 75.3371C266.632 76.8906 268.042 78.1292 270.851 78.4336C272.597 78.6225 274.291 78.4651 275.553 77.6569C275.942 77.4154 276.026 76.6912 275.69 76.6387C273.281 76.2083 271.187 73.9201 271.187 72.2407L272.786 71.317C273.702 70.7921 274.575 70.1624 275.427 69.4381V69.4276C275.721 69.1862 276.016 68.9133 276.3 68.6404C276.815 68.168 277.32 67.6327 277.804 67.0659C277.994 66.856 278.183 66.6355 278.383 66.3941C278.562 66.1842 278.73 65.9638 278.909 65.7433C278.951 65.6699 279.014 65.5964 279.066 65.5334C279.75 64.6307 280.402 63.6755 281.002 62.6573C281.16 62.3844 281.318 62.122 281.475 61.8491C281.633 61.5762 281.781 61.3033 281.928 61.0199C282.075 60.7365 282.212 60.4531 282.359 60.1802L282.759 59.3195C282.896 59.0361 283.022 58.7317 283.138 58.4587C283.358 57.9549 283.569 57.4301 283.748 56.9263C283.779 56.8318 283.811 56.7373 283.853 56.6428C283.969 56.3489 284.063 56.055 284.158 55.7611C284.347 55.1838 284.516 54.6275 284.684 54.0397C285.052 52.6332 285.347 51.2057 285.515 49.8096C285.547 49.5682 285.568 49.3268 285.589 49.0959C285.61 48.8859 285.631 48.676 285.641 48.4766C285.652 48.2561 285.673 48.0567 285.673 47.8468C285.694 47.4584 285.704 47.0595 285.704 46.6712C285.715 37.1928 279.908 32.8158 272.786 36.9199Z" fill="#E7E7E7"/>
<path d="M-35.464 52.6111V31.807H-35.4535C-35.5166 27.7764 -32.8867 23.7457 -27.5533 20.6702C-17.0128 14.6032 0.0708885 14.6032 10.6114 20.6702C15.9448 23.7457 18.5747 27.7764 18.5116 31.807V52.5271C18.5537 56.5368 15.9238 63.7059 10.6114 66.7604C0.0708885 72.8274 -17.0128 72.8274 -27.5533 66.7604C-32.8131 63.7269 -35.443 56.6103 -35.4535 52.6426V52.6321C-35.464 52.6321 -35.464 52.6216 -35.464 52.6111Z" fill="#DCDCDC"/>
<path d="M-8.47094 6.01709L36.0581 31.6706L-8.47094 57.324L-53 31.6706L-8.47094 6.01709Z" fill="#D5D5D5"/>
<path d="M36.0581 31.6705V33.4969L-8.47095 59.1504V57.324L36.0581 31.6705Z" fill="#858585"/>
<path d="M18.5642 43.5841L-8.47088 61.9005L-35.4324 43.6156L-8.47088 59.1504L18.5642 43.5841Z" fill="#ABD5FD"/>
<path d="M18.5642 43.5841L-8.47088 61.9005L-35.4324 43.6156L-8.47088 59.1504L18.5642 43.5841Z" fill="#AEAEAE"/>
<path d="M23.6846 289.739C21.5386 278.655 13.8804 262.857 4.48652 254.061C-4.54974 245.601 -17.9621 242.652 -23.306 246.546C-28.6499 250.44 -25.1469 258.89 -14.7747 269.176C-3.07701 280.775 19.4137 312.957 23.6846 331.2V289.739Z" fill="#696969"/>
<path d="M23.6846 316.411C23.4216 316.411 23.1902 316.211 23.1586 315.938C20.5077 288.007 0.941437 256.622 -17.8885 250.083C-18.162 249.989 -18.3092 249.684 -18.2146 249.411C-18.1199 249.138 -17.8148 248.991 -17.5413 249.086C1.96183 255.856 21.4755 287.041 24.2106 315.833C24.2421 316.117 24.0212 316.379 23.7372 316.4C23.7162 316.4 23.6951 316.411 23.6846 316.411Z" fill="white"/>
<path d="M23.6846 344.583C23.6846 344.583 20.0448 347.48 7.89478 346.346C-4.25525 345.213 -10.5038 336.553 -10.5038 332.837C-10.5038 329.122 0.646837 328.492 3.07684 319.276C3.07684 319.276 0.099823 323.013 -6.23292 324.199C-12.5657 325.385 -17.615 323.37 -19.0562 311.886C-19.0562 311.886 -14.7748 312.716 -9.778 311.12C-4.78123 309.514 -3.59253 306.785 -4.89695 306.197C-6.20136 305.609 -13.1548 306.25 -17.6255 304.507C-22.0858 302.765 -18.6249 279.641 -15.7531 277.993C-12.8812 276.335 1.00451 280.229 3.6975 282.307C6.09595 284.155 9.46219 287.356 7.86322 294.126C7.86322 294.126 10.3774 292.016 12.0395 287.954C13.3439 284.763 14.2906 285.54 16.2683 286.737C18.246 287.933 20.413 290.106 20.8864 293.045C21.3597 295.984 20.5918 306.124 16.4471 309.42C16.4471 309.42 20.4235 309.924 23.674 303.227C23.674 303.227 30.0173 305.767 31.4164 309.892C32.8155 314.017 34.4776 334.139 23.6846 344.583Z" fill="#C4C4C4"/>
<path d="M24.747 346.882C24.484 346.882 24.2631 346.682 24.2211 346.42C21.4439 323.737 4.16036 293.99 -12.7866 282.748C-13.0285 282.591 -13.0916 282.265 -12.9338 282.024C-12.776 281.782 -12.4499 281.719 -12.208 281.877C4.94933 293.266 22.4538 323.37 25.252 346.304C25.2835 346.588 25.0837 346.85 24.7891 346.892C24.7891 346.882 24.7681 346.882 24.747 346.882Z" fill="white"/>
<path d="M25.8202 350.052C24.642 349.37 23.6847 347.648 23.6847 346.2V95.4275C23.6847 93.979 24.7051 92.2156 25.9674 91.4913L183.781 0.570493C185.043 -0.153767 187.01 -0.195753 188.199 0.486521C189.377 1.16879 190.335 2.89022 190.335 4.33874V255.1C190.335 256.549 189.314 258.312 188.052 259.037L30.2278 349.957C28.976 350.692 26.9983 350.724 25.8202 350.052Z" fill="#BEBEBE"/>
<path d="M27.9556 100.193L92.0509 58.3434L87.78 55.8872L25.9674 91.5019C24.7051 92.2261 23.6847 93.9895 23.6847 95.4381V97.7368L27.9556 100.193Z" fill="#373737"/>
<path d="M49.3207 107.572L24.3474 93.1918C23.9372 93.9055 23.6847 94.7033 23.6847 95.4275V346.189C23.6847 347.638 24.642 349.359 25.8202 350.041C26.9983 350.724 28.976 350.682 30.2383 349.957L49.3207 338.957V107.572Z" fill="#313131"/>
<path d="M30.2383 349.968L188.062 259.047C189.325 258.323 190.345 256.559 190.345 255.111V4.34932C190.345 2.9008 189.325 2.31299 188.062 3.03725L30.2278 93.9475C28.9655 94.6718 27.9451 96.4352 27.9451 97.8837V348.645C27.9556 350.104 28.976 350.692 30.2383 349.968Z" fill="#282828"/>
<path d="M30.2383 349.968L188.062 259.047C189.325 258.323 190.345 256.559 190.345 255.111V4.34932C190.345 2.9008 189.325 2.31299 188.062 3.03725L30.2278 93.9475C28.9655 94.6718 27.9451 96.4352 27.9451 97.8837V348.645C27.9556 350.104 28.976 350.692 30.2383 349.968Z" fill="url(#paint0_linear)"/>
<path d="M57.8625 90.5103C46.0597 97.1546 36.4974 113.687 36.4974 127.437C36.4974 141.187 46.0597 146.824 57.8625 140.033C69.6654 133.231 79.2277 116.699 79.2277 103.106C79.2277 89.5131 69.6654 83.8765 57.8625 90.5103Z" fill="white"/>
<mask id="mask0" mask-type="alpha" maskUnits="userSpaceOnUse" x="36" y="87" width="44" height="56">
<path d="M57.8625 90.5103C46.0597 97.1546 36.4974 113.687 36.4974 127.437C36.4974 141.187 46.0597 146.824 57.8625 140.033C69.6654 133.231 79.2277 116.699 79.2277 103.106C79.2277 89.5131 69.6654 83.8765 57.8625 90.5103Z" fill="#F5F5F5"/>
</mask>
<g mask="url(#mask0)">
<path d="M68.2137 130.192L51.1195 134.768C49.773 135.125 48.6895 134.254 48.6895 132.816V103.762C48.6895 98.9964 52.2976 94.1785 56.7474 92.9819L62.5962 91.4179C67.046 90.2318 70.6542 93.1183 70.6542 97.8838V126.938C70.6542 128.376 69.5602 129.835 68.2137 130.192Z" fill="#252525"/>
<path d="M69.0448 137.708L67.2144 129.783C67.2144 129.783 67.2354 119.087 65.6786 118.1C64.1322 117.113 63.7114 116.925 63.7114 116.925C65.668 116.253 69.7917 115.738 71.0961 119.496C72.3269 123.044 74.1678 131.788 75.0409 136.102L69.0448 137.708Z" fill="#F28F8F"/>
<path d="M68.8976 137.75L62.8068 117.019C65.5103 115.969 68.9712 115.098 70.6543 117.88C72.1691 120.378 74.5886 133.456 75.062 136.102L68.8976 137.75Z" fill="#E03B3B"/>
<path d="M69.7182 137.529L63.722 139.135C64.1218 137.025 64.7214 135.188 65.3946 134.265C67.6248 131.252 70.3073 130.57 70.3073 130.57C70.3073 130.57 69.613 134.055 69.7182 137.529Z" fill="#2343BA"/>
<path d="M68.4242 137.875L51.6456 142.357L49.7836 136.626C49.7836 136.626 54.6962 125.154 48.6265 122.215C49.4049 121.637 55.8639 119.108 55.8639 119.108L62.8173 117.029C64.1428 116.672 69.4972 119.045 70.8542 124.303C71.3381 126.172 71.1698 127.83 68.4452 137.508C68.4452 137.623 68.4347 137.749 68.4242 137.875Z" fill="#353535"/>
<path d="M67.046 94.9762C68.2032 95.3961 69.6444 98.1356 69.4971 104.717C69.3814 110.291 67.6982 112.117 66.8567 112.736C66.0151 113.356 64.3846 113.555 62.8067 113.691V117.019C62.8067 117.019 64.9947 119.15 64.858 120.714C64.7212 122.278 61.7021 123.443 59.6508 122.498C57.61 121.553 55.8848 119.108 55.8848 119.108L55.9164 111.445C55.9164 111.445 54.9802 112.663 53.4022 111.603C52.0978 110.731 51.656 108.8 52.6764 107.425C53.6968 106.05 55.5692 105.851 56.2846 107.226C56.2846 107.226 57.1682 104.381 60.808 102.135C64.1006 100.109 65.8889 98.3036 67.046 94.9762Z" fill="#FFDBBA"/>
<path d="M63.7114 104.874C63.7325 105.273 63.459 105.683 63.0908 105.798C62.7331 105.914 62.4281 105.683 62.407 105.294C62.386 104.895 62.6595 104.486 63.0277 104.371C63.3853 104.255 63.6904 104.476 63.7114 104.874Z" fill="#252525"/>
<path d="M63.8796 109.524L65.3944 109.64C65.2682 110.133 64.8264 110.511 64.4056 110.48C63.9953 110.448 63.7534 110.028 63.8796 109.524Z" fill="#DDB692"/>
<path d="M69.0554 101.306L67.7405 100.676C67.9824 100.204 68.4769 99.9726 68.8345 100.141C69.1922 100.319 69.2974 100.833 69.0554 101.306Z" fill="#252525"/>
<path d="M61.8074 103.762L63.1224 102.429C62.8804 102.093 62.386 102.114 62.0283 102.481C61.6707 102.849 61.5655 103.415 61.8074 103.762Z" fill="#252525"/>
<path d="M68.7503 103.027C68.7713 103.426 68.4978 103.835 68.1296 103.951C67.772 104.066 67.4669 103.835 67.4458 103.447C67.4248 103.048 67.6983 102.639 68.0665 102.523C68.4242 102.397 68.7292 102.628 68.7503 103.027Z" fill="#252525"/>
<path d="M65.6681 103.447L65.7733 107.614L67.8456 106.375L65.6681 103.447Z" fill="#DDB692"/>
<path d="M62.7963 113.691C61.1342 113.901 57.6943 113.765 57.1683 112.463C57.1683 112.463 57.3472 113.324 58.3676 113.996C59.3879 114.657 62.7963 114.804 62.7963 114.804V113.691Z" fill="#DDB692"/>
<path d="M51.6982 142.347L50.9934 139.849L52.8449 142.043L51.6982 142.347Z" fill="#FFC000"/>
<path d="M50.3201 142.714C49.9308 140.384 48.6369 135.965 47.2379 132.155C45.4706 127.316 47.4482 123.138 48.6264 122.215C49.8151 121.291 55.8638 119.108 55.8638 119.108C58.0519 125.332 58.6515 133.645 58.7041 140.468L50.3983 143.206L50.3201 142.714Z" fill="#E03B3B"/>
<path d="M47.3325 143.512L41.3259 145.118C41.0208 144.898 40.8525 144.73 40.8525 144.73C40.8525 144.73 43.6928 133.792 44.5975 130.16C45.5021 126.529 46.1964 124.03 48.637 122.215C53.0236 125.059 50.9933 132.963 50.9933 132.963L47.3325 143.512Z" fill="#E03B3B"/>
</g>
<path d="M41.0524 155.814L78.9436 133.981C81.4578 132.533 83.4986 133.561 83.4986 136.28C83.4986 138.998 81.4578 142.378 78.9436 143.827L41.0524 165.66C38.5382 167.108 36.4974 166.08 36.4974 163.361C36.4974 160.642 38.5382 157.262 41.0524 155.814Z" fill="#D0D0D0"/>
<path d="M41.0524 171.307L66.1309 156.863C68.6451 155.415 70.6858 156.444 70.6858 159.162C70.6858 161.881 68.6451 165.261 66.1309 166.709L41.0524 181.152C38.5382 182.601 36.4974 181.572 36.4974 178.854C36.4974 176.135 38.5382 172.755 41.0524 171.307Z" fill="#D0D0D0"/>
<path d="M38.3278 197.821L43.2299 194.997C44.2397 194.42 45.0497 194.892 45.0497 196.047V201.694C45.0497 202.849 44.2292 204.266 43.2299 204.843L38.3278 207.667C37.3179 208.244 36.5079 207.772 36.5079 206.617V200.97C36.4974 199.815 37.3179 198.398 38.3278 197.821Z" fill="white"/>
<path d="M51.6034 192.636L81.2369 175.568C82.4992 174.844 83.5196 175.358 83.5196 176.723C83.5196 178.087 82.4992 179.767 81.2369 180.502L51.6034 197.569C50.3411 198.293 49.3207 197.779 49.3207 196.414C49.3207 195.05 50.3411 193.36 51.6034 192.636Z" fill="#7A7A7A"/>
<path d="M38.3278 217.512L43.2299 214.689C44.2397 214.111 45.0497 214.584 45.0497 215.738V221.386C45.0497 222.54 44.2292 223.957 43.2299 224.534L38.3278 227.358C37.3179 227.935 36.5079 227.463 36.5079 226.308V220.661C36.4974 219.507 37.3179 218.1 38.3278 217.512Z" fill="white"/>
<path d="M51.6034 212.327L81.2369 195.26C82.4992 194.536 83.5196 195.05 83.5196 196.414C83.5196 197.779 82.4992 199.458 81.2369 200.193L51.6034 217.26C50.3411 217.985 49.3207 217.47 49.3207 216.106C49.3207 214.741 50.3411 213.051 51.6034 212.327Z" fill="#7A7A7A"/>
<path d="M38.3278 237.204L43.2299 234.38C44.2397 233.803 45.0497 234.275 45.0497 235.43V241.077C45.0497 242.232 44.2292 243.649 43.2299 244.226L38.3278 247.05C37.3179 247.627 36.5079 247.155 36.5079 246V240.353C36.4974 239.198 37.3179 237.792 38.3278 237.204Z" fill="white"/>
<path d="M51.6034 232.019L81.2369 214.951C82.4992 214.227 83.5196 214.741 83.5196 216.106C83.5196 217.47 82.4992 219.15 81.2369 219.885L51.6034 236.952C50.3411 237.676 49.3207 237.162 49.3207 235.797C49.3207 234.433 50.3411 232.743 51.6034 232.019Z" fill="#7A7A7A"/>
<path d="M38.3278 256.958L43.2299 254.135C44.2397 253.557 45.0497 254.03 45.0497 255.184V260.831C45.0497 261.986 44.2292 263.403 43.2299 263.98L38.3278 266.804C37.3179 267.381 36.5079 266.909 36.5079 265.754V260.107C36.4974 258.942 37.3179 257.536 38.3278 256.958Z" fill="white"/>
<path d="M51.6034 251.762L81.2369 234.695C82.4992 233.971 83.5196 234.485 83.5196 235.85C83.5196 237.214 82.4992 238.894 81.2369 239.628L51.6034 256.696C50.3411 257.42 49.3207 256.906 49.3207 255.541C49.3207 254.177 50.3411 252.487 51.6034 251.762Z" fill="#7A7A7A"/>
<path d="M38.3278 276.65L43.2299 273.826C44.2397 273.249 45.0497 273.721 45.0497 274.876V280.523C45.0497 281.678 44.2292 283.095 43.2299 283.672L38.3278 286.496C37.3179 287.073 36.5079 286.6 36.5079 285.446V279.799C36.4974 278.634 37.3179 277.227 38.3278 276.65Z" fill="white"/>
<path d="M51.6034 271.454L81.2369 254.387C82.4992 253.662 83.5196 254.177 83.5196 255.541C83.5196 256.906 82.4992 258.585 81.2369 259.32L51.6034 276.387C50.3411 277.112 49.3207 276.597 49.3207 275.233C49.3207 273.868 50.3411 272.178 51.6034 271.454Z" fill="#7A7A7A"/>
<path d="M38.7802 296.026L59.8613 283.882C61.1236 283.158 62.144 283.672 62.144 285.037C62.144 286.401 61.1236 288.081 59.8613 288.815L38.7802 300.96C37.5178 301.684 36.4974 301.17 36.4974 299.805C36.4974 298.441 37.5178 296.751 38.7802 296.026Z" fill="#7A7A7A"/>
<path d="M38.7802 305.872L81.2264 281.415C82.4887 280.691 83.5091 281.205 83.5091 282.57C83.5091 283.934 82.4887 285.614 81.2264 286.349L38.7802 310.805C37.5178 311.53 36.4974 311.015 36.4974 309.651C36.4974 308.286 37.5178 306.596 38.7802 305.872Z" fill="#565656"/>
<path d="M38.7801 305.872L68.4135 288.805C69.6758 288.081 70.6857 288.595 70.6857 289.959C70.6857 291.324 69.6653 293.014 68.403 293.738L38.7695 310.805C37.5072 311.53 36.4868 311.015 36.4868 309.651C36.4973 308.286 37.5177 306.596 38.7801 305.872Z" fill="white"/>
<path d="M38.7802 315.707L59.8613 303.563C61.1236 302.839 62.144 303.353 62.144 304.717C62.144 306.082 61.1236 307.761 59.8613 308.496L38.7802 320.641C37.5178 321.365 36.4974 320.851 36.4974 319.486C36.4974 318.121 37.5178 316.432 38.7802 315.707Z" fill="#7A7A7A"/>
<path d="M38.7802 325.553L81.2264 301.096C82.4887 300.372 83.5091 300.886 83.5091 302.251C83.5091 303.615 82.4887 305.295 81.2264 306.03L38.7802 330.486C37.5178 331.211 36.4974 330.696 36.4974 329.332C36.4974 327.967 37.5178 326.277 38.7802 325.553Z" fill="#565656"/>
<path d="M38.7801 325.553L76.9554 303.563C78.2177 302.839 79.2276 303.353 79.2276 304.717C79.2276 306.082 78.2072 307.772 76.9448 308.496L38.7695 330.486C37.5072 331.211 36.4868 330.696 36.4868 329.332C36.4973 327.967 37.5177 326.277 38.7801 325.553Z" fill="white"/>
<path d="M188.052 3.03725L92.0509 58.3434V314.353L188.052 259.047C189.314 258.323 190.324 256.56 190.324 255.111V4.34932C190.335 2.9008 189.314 2.31299 188.052 3.03725Z" fill="#E8E8E8"/>
<path d="M92.051 68.189V87.8804L83.5092 97.7262H92.051V117.418L181.782 65.7223V16.4937L92.051 68.189Z" fill="#7D7D7D"/>
<path d="M103.791 68.8712L140.146 47.9307C141.903 46.9125 143.334 47.7418 143.334 49.7676V49.8096C143.334 51.8354 141.903 54.3021 140.146 55.3202L103.791 76.2608C102.034 77.2789 100.603 76.4497 100.603 74.4239V74.3819C100.593 72.3561 102.023 69.8894 103.791 68.8712Z" fill="white"/>
<path d="M101.74 84.763L172.104 44.2254C172.736 43.8581 173.241 44.1205 173.241 44.8027C173.241 45.485 172.736 46.3247 172.104 46.6921L101.74 87.2296C101.108 87.597 100.603 87.3346 100.603 86.6523C100.603 85.9701 101.108 85.1198 101.74 84.763Z" fill="white"/>
<path d="M101.74 92.1421L172.104 51.6151C172.736 51.2477 173.241 51.5101 173.241 52.1924C173.241 52.8747 172.736 53.7144 172.104 54.0818L101.74 94.6193C101.108 94.9867 100.603 94.7242 100.603 94.042C100.603 93.3597 101.108 92.5095 101.74 92.1421Z" fill="white"/>
<path d="M101.74 99.5316L172.104 58.9941C172.736 58.6267 173.241 58.8892 173.241 59.5714C173.241 60.2537 172.736 61.0934 172.104 61.4608L101.74 101.998C101.108 102.366 100.603 102.103 100.603 101.421C100.603 100.739 101.108 99.899 101.74 99.5316Z" fill="white"/>
<path d="M104.39 120.178L109.292 117.355C110.302 116.777 111.112 117.25 111.112 118.404V124.051C111.112 125.206 110.292 126.623 109.292 127.2L104.39 130.024C103.38 130.601 102.57 130.129 102.57 128.974V123.327C102.56 122.172 103.38 120.766 104.39 120.178Z" fill="#7D7D7D"/>
<path d="M117.666 114.993L147.299 97.9256C148.562 97.2013 149.582 97.7157 149.582 99.0802C149.582 100.445 148.562 102.124 147.299 102.859L117.666 119.926C116.404 120.651 115.394 120.136 115.394 118.772C115.383 117.407 116.404 115.717 117.666 114.993Z" fill="#B4B4B4"/>
<path d="M103.706 137.812L178.342 94.8082C178.973 94.4408 179.478 94.7032 179.478 95.3855C179.478 96.0678 178.973 96.9075 178.342 97.2749L103.706 140.279C103.075 140.646 102.57 140.384 102.57 139.702C102.57 139.02 103.075 138.18 103.706 137.812Z" fill="#B4B4B4"/>
<path d="M103.706 145.202L178.342 102.198C178.974 101.83 179.478 102.093 179.478 102.775C179.478 103.457 178.974 104.297 178.342 104.664L103.706 147.669C103.075 148.036 102.57 147.774 102.57 147.091C102.56 146.409 103.075 145.559 103.706 145.202Z" fill="#B4B4B4"/>
<path d="M103.706 152.591L178.342 109.587C178.974 109.22 179.478 109.482 179.478 110.165C179.478 110.847 178.974 111.687 178.342 112.054L103.706 155.058C103.075 155.426 102.57 155.163 102.57 154.481C102.56 153.799 103.075 152.948 103.706 152.591Z" fill="#B4B4B4"/>
<path d="M103.706 159.992L178.342 116.987C178.974 116.62 179.478 116.882 179.478 117.565C179.478 118.247 178.974 119.087 178.342 119.454L103.706 162.458C103.075 162.826 102.57 162.563 102.57 161.881C102.56 161.199 103.075 160.359 103.706 159.992Z" fill="#B4B4B4"/>
<path d="M104.39 174.34L109.292 171.517C110.302 170.939 111.112 171.412 111.112 172.566V178.214C111.112 179.368 110.292 180.785 109.292 181.362L104.39 184.186C103.38 184.763 102.57 184.291 102.57 183.136V177.489C102.56 176.324 103.38 174.918 104.39 174.34Z" fill="#7D7D7D"/>
<path d="M117.666 169.155L147.299 152.088C148.562 151.363 149.582 151.878 149.582 153.242C149.582 154.607 148.562 156.286 147.299 157.021L117.666 174.088C116.404 174.813 115.394 174.298 115.394 172.934C115.383 171.569 116.404 169.879 117.666 169.155Z" fill="#B4B4B4"/>
<path d="M103.706 191.974L178.342 148.97C178.973 148.603 179.478 148.865 179.478 149.548C179.478 150.23 178.973 151.069 178.342 151.437L103.706 194.441C103.075 194.808 102.57 194.546 102.57 193.864C102.57 193.181 103.075 192.342 103.706 191.974Z" fill="#B4B4B4"/>
<path d="M103.707 199.364L178.342 156.36C178.974 155.992 179.479 156.255 179.479 156.937C179.479 157.619 178.974 158.459 178.342 158.826L103.707 201.831C103.075 202.198 102.57 201.936 102.57 201.253C102.57 200.571 103.075 199.721 103.707 199.364Z" fill="#B4B4B4"/>
<path d="M103.707 206.743L178.342 163.739C178.974 163.371 179.479 163.634 179.479 164.316C179.479 164.998 178.974 165.838 178.342 166.206L103.707 209.21C103.075 209.577 102.57 209.315 102.57 208.632C102.57 207.95 103.075 207.11 103.707 206.743Z" fill="#B4B4B4"/>
<path d="M103.706 214.153L178.342 171.149C178.974 170.782 179.478 171.044 179.478 171.727C179.478 172.409 178.974 173.249 178.342 173.616L103.706 216.62C103.075 216.988 102.57 216.725 102.57 216.043C102.56 215.361 103.075 214.51 103.706 214.153Z" fill="#B4B4B4"/>
<path d="M104.39 228.492L109.292 225.668C110.302 225.091 111.112 225.563 111.112 226.718V232.365C111.112 233.52 110.292 234.937 109.292 235.514L104.39 238.337C103.38 238.915 102.57 238.442 102.57 237.288V231.641C102.56 230.486 103.38 229.08 104.39 228.492Z" fill="#7D7D7D"/>
<path d="M117.666 223.306L147.299 206.239C148.562 205.515 149.582 206.029 149.582 207.394C149.582 208.758 148.562 210.438 147.299 211.172L117.666 228.24C116.404 228.964 115.394 228.45 115.394 227.085C115.394 225.721 116.404 224.031 117.666 223.306Z" fill="#B4B4B4"/>
<path d="M103.706 246.136L178.342 203.132C178.973 202.765 179.478 203.027 179.478 203.709C179.478 204.392 178.973 205.231 178.342 205.599L103.706 248.603C103.075 248.97 102.57 248.708 102.57 248.026C102.57 247.343 103.075 246.493 103.706 246.136Z" fill="#B4B4B4"/>
<path d="M103.707 253.515L178.342 210.511C178.974 210.144 179.479 210.406 179.479 211.089C179.479 211.771 178.974 212.61 178.342 212.978L103.707 255.982C103.075 256.349 102.57 256.087 102.57 255.405C102.57 254.723 103.075 253.883 103.707 253.515Z" fill="#B4B4B4"/>
<path d="M103.707 260.905L178.342 217.901C178.974 217.533 179.479 217.796 179.479 218.478C179.479 219.16 178.974 220 178.342 220.367L103.707 263.372C103.075 263.739 102.57 263.477 102.57 262.794C102.57 262.112 103.075 261.262 103.707 260.905Z" fill="#B4B4B4"/>
<path d="M103.706 268.305L178.342 225.301C178.974 224.933 179.478 225.196 179.478 225.878C179.478 226.56 178.974 227.4 178.342 227.767L103.706 270.772C103.075 271.139 102.57 270.877 102.57 270.194C102.56 269.512 103.075 268.672 103.706 268.305Z" fill="#B4B4B4"/>
<path d="M111.365 276.177L116.267 273.354C117.277 272.777 118.087 273.249 118.087 274.403V280.051C118.087 281.205 117.266 282.622 116.267 283.2L111.365 286.023C110.355 286.6 109.545 286.128 109.545 284.973V279.326C109.545 278.172 110.365 276.755 111.365 276.177Z" fill="#7D7D7D"/>
<path d="M103.706 295.365L123.935 283.714C124.567 283.346 125.072 283.609 125.072 284.291C125.072 284.973 124.567 285.813 123.935 286.18L103.706 297.832C103.075 298.199 102.57 297.937 102.57 297.254C102.56 296.572 103.075 295.722 103.706 295.365Z" fill="#B4B4B4"/>
<path d="M138.568 260.496L143.47 257.672C144.48 257.095 145.29 257.567 145.29 258.722V264.369C145.29 265.523 144.47 266.94 143.47 267.518L138.568 270.341C137.558 270.919 136.748 270.446 136.748 269.292V263.645C136.748 262.479 137.569 261.073 138.568 260.496Z" fill="#7D7D7D"/>
<path d="M130.91 279.683L151.139 268.032C151.77 267.665 152.275 267.927 152.275 268.609C152.275 269.292 151.77 270.132 151.139 270.499L130.91 282.15C130.279 282.517 129.774 282.255 129.774 281.573C129.774 280.89 130.279 280.04 130.91 279.683Z" fill="#B4B4B4"/>
<path d="M165.782 244.803L170.684 241.98C171.694 241.402 172.504 241.875 172.504 243.029V248.677C172.504 249.831 171.684 251.248 170.684 251.825L165.782 254.649C164.772 255.226 163.962 254.754 163.962 253.599V247.952C163.952 246.798 164.772 245.391 165.782 244.803Z" fill="#7D7D7D"/>
<path d="M158.113 263.991L178.342 252.34C178.974 251.973 179.479 252.235 179.479 252.917C179.479 253.6 178.974 254.439 178.342 254.807L158.113 266.458C157.482 266.825 156.977 266.563 156.977 265.88C156.977 265.198 157.482 264.358 158.113 263.991Z" fill="#B4B4B4"/>
<path d="M203.694 364.799C230.367 364.799 251.989 354.517 251.989 341.833C251.989 329.149 230.367 318.867 203.694 318.867C177.022 318.867 155.399 329.149 155.399 341.833C155.399 354.517 177.022 364.799 203.694 364.799Z" fill="#D2D2D2"/>
<path d="M188.273 175.768C184.286 174.529 180.204 177.741 177.532 184.228C174.86 190.715 169.253 207.205 168.422 211.613C167.602 216.011 186.4 225.584 185.874 225.332C185.348 225.07 188.273 175.768 188.273 175.768Z" fill="#998E6C"/>
<path d="M179.531 328.45C178.974 328.66 178.826 329.731 178.742 331.851C178.679 333.457 178.332 336.259 180.215 336.816C182.098 337.372 184.864 337.089 186.064 335.577C187.568 333.688 188.588 332.029 190.745 329.72C192.607 327.726 194.627 325.857 195.384 323.055C196.068 320.525 195.5 319.423 193.764 318.688C191.387 317.681 187.642 320.987 185.769 321.501C184.17 321.953 180.089 328.23 179.531 328.45Z" fill="#383838"/>
<path d="M179.531 326.477V329.08C179.531 329.08 182.245 331.158 186.127 329.258C186.242 329.006 186.811 325.532 186.811 325.532L179.531 326.477Z" fill="#F5CCA7"/>
<path d="M200.665 343.46C200.665 343.46 199.918 345.727 199.508 347.711C199.192 349.286 198.729 351.92 199.276 353.106C199.834 354.292 201.98 355.059 205.325 355.027C207.492 355.006 210.858 356.476 213.172 357.767C215.56 359.1 220.515 359.625 223.04 359.331C226.017 358.984 229.099 357.263 229.572 356.035C230.056 354.807 229.415 353.526 222.409 350.556C222.345 350.524 212.668 347.386 209.28 343.659L200.665 343.46Z" fill="#383838"/>
<path d="M200.665 340.636C200.665 340.636 200.675 342.568 200.665 343.67C200.654 344.772 201.959 346.42 205.346 346.305C207.723 346.221 209.385 345.58 209.291 343.628V340.815L200.665 340.636Z" fill="#F5CCA7"/>
<path d="M177.827 291.912C179.026 283.399 180.909 278.35 180.909 278.35C180.909 278.35 179.973 266.647 179.531 255.552C179.047 243.565 179.552 228.502 179.331 225.511C179.331 225.511 218.096 217.68 218.79 231.536C219.484 245.391 217.265 280.659 216.802 286.747C216.339 292.835 215.287 298.22 214.025 308.087C212.783 317.828 209.291 340.815 209.291 340.815C204.862 343.208 200.665 340.636 200.665 340.636C200.665 340.636 197.94 312.926 198.224 305.903C198.571 297.328 200.896 290.568 200.896 290.568C200.896 290.568 200.16 279.148 199.508 269.208C198.855 259.267 198.172 254.492 198.024 250.177L197.193 249.768C197.193 249.768 196.341 266.909 195.889 272.997C195.426 279.085 194.458 284.921 192.691 296.226C191.155 306.029 186.6 326.792 186.6 326.792C182.171 329.185 179.531 326.477 179.531 326.477C179.531 326.477 176.638 300.424 177.827 291.912Z" fill="#414141"/>
<path d="M198.024 250.188C198.024 250.188 188.62 245.559 183.918 241.392C183.918 241.392 188.283 247.532 194.027 250.261C194.027 250.261 196.068 271.559 196.057 271.139L197.235 250.156L198.024 250.188Z" fill="#232323"/>
<path d="M206.398 171.38L204.105 183.976L192.701 183.147L195.089 168.861L206.398 171.38Z" fill="#F5CCA7"/>
<path d="M180.657 182.223C181.782 178.801 186.137 175.075 190.503 175.883C198.508 177.363 204.862 178.959 209.585 180.638C213.572 182.055 217.212 185.498 217.538 198.598L219.558 237.603L214.729 238.642L213.046 229.804L212.257 238.642C207.208 239.912 198.456 238.862 192.691 237.603C180.699 234.989 179.257 230.024 179.257 230.024C179.257 230.024 179.1 208.076 179.457 198.587C179.773 190.536 179.878 184.574 180.657 182.223Z" fill="#D3C394"/>
<path d="M214.834 156.454C214.834 156.454 217.591 160.537 217.243 160.968C216.896 161.408 215.171 161.881 215.171 161.881L214.834 156.454Z" fill="#F5CCA7"/>
<path d="M206.398 143.522C209.059 144.866 213.656 147.343 214.918 157.052C216.223 167.024 214.508 170.236 213.151 171.559C212.236 172.451 207.281 172.503 204.799 171.758C201.685 170.824 194.668 168.168 191.471 163.046C187.705 157.021 186.863 148.949 191.113 145.737C197.088 141.224 204.147 142.389 206.398 143.522Z" fill="#F5CCA7"/>
<path d="M215.476 146.86C214.603 149.253 213.13 155.111 207.008 157.556C207.008 157.556 206.135 153.83 202.99 154.218C199.823 154.617 199.308 158.616 201.243 161.104C203.179 163.581 205.051 162.689 205.051 162.689C205.051 162.689 205.472 168.042 201.896 170.467C201.896 170.467 197.572 173.196 192.996 171.097C190.934 170.152 188.02 165.229 186.316 161.188C182.697 152.644 182.182 145.79 187.652 143.627C188.325 139.744 190.072 138.285 193.606 137.56C201.191 135.996 206.924 140.972 213.299 140.1C216.591 139.639 216.476 144.131 215.476 146.86Z" fill="#282828"/>
<path d="M187.515 144.929L183.939 142.714C184.549 141.728 185.853 141.423 186.842 142.032C187.82 142.651 188.125 143.942 187.515 144.929Z" fill="#282828"/>
<path d="M289.249 312.422C309.828 312.422 326.51 304.489 326.51 294.704C326.51 284.918 309.828 276.985 289.249 276.985C268.671 276.985 251.989 284.918 251.989 294.704C251.989 304.489 268.671 312.422 289.249 312.422Z" fill="#D2D2D2"/>
<path d="M273.702 160.737H298.538C300.495 160.737 302.073 159.162 302.073 157.21V117.827C302.073 111.372 296.834 106.144 290.365 106.144H281.875C275.406 106.144 270.167 111.372 270.167 117.827V157.21C270.167 159.162 271.745 160.737 273.702 160.737Z" fill="#252525"/>
<path d="M269.515 147.291C267.095 154.386 263.066 174.76 263.066 174.76C263.066 174.76 254.609 185.036 251.905 187.513C250.401 188.899 247.014 191.386 247.014 191.386L253.168 195.91C258.859 191.701 265.633 185.246 268.778 181.887C269.851 180.743 270.609 179.347 270.956 177.825L275.164 159.813C275.164 159.813 275.132 145.328 277.394 143.428C279.645 141.528 280.245 141.129 280.245 141.129C277.404 140.919 271.408 141.727 269.515 147.291Z" fill="#FFDDBF"/>
<path d="M281.57 140.919C277.646 140.468 272.618 140.552 270.167 144.929C267.716 149.306 263.634 171.884 263.634 171.884C263.634 171.884 267.495 174.875 271.661 174.823L281.57 140.919Z" fill="#E03B3B"/>
<path d="M270.662 161.996C270.662 161.996 271.829 167.161 271.482 172.272C271.167 176.796 268.042 184.721 268.042 184.721C268.042 184.721 270.493 187.408 277.405 186.327C283.033 185.445 281.044 168.504 277.804 165.219C274.564 161.944 270.662 161.996 270.662 161.996Z" fill="#BA3535"/>
<path d="M283.664 281.877C283.695 282.549 283.632 283.052 283.106 284.081C282.475 285.32 280.771 287.44 279.466 288.847C277.52 290.935 274.606 293.402 272.513 295.228C271.356 296.236 271.303 297.769 272.965 298.304C274.627 298.839 278.299 299.07 282.107 297.034C284.179 295.921 287.135 290.788 288.86 290.001C290.848 289.109 291.963 288.658 292.626 287.744C293.626 286.38 293.889 285.362 293.026 283.766C292.09 282.034 290.691 279.347 290.112 279.652L290.291 280.208C289.839 281.625 285.967 283.273 283.979 282.885L283.664 281.877Z" fill="#373737"/>
<path d="M303.945 222.645C304.85 213.167 307.406 197.999 304.776 186.758L269.862 188.605C268.894 199.7 267.779 234.338 268.968 238.306C270.377 242.987 282.969 275.39 283.663 281.908C283.621 283.074 283.551 283.097 283.213 283.773C282.582 285.001 280.771 287.451 279.456 288.868C278.509 289.886 277.331 290.988 276.132 292.059C276.016 292.247 275.963 292.415 275.963 292.562C275.963 293.644 278.604 293.937 280.16 293.486C282.054 292.93 283.663 291.502 284.947 289.823C285.841 288.637 287.85 286.348 289.113 284.648C289.66 283.934 290.07 283.325 290.217 282.927C290.669 281.803 290.543 281.016 290.375 280.47L290.291 280.218C289.607 278.088 289.186 275.894 289.028 273.669C288.545 266.521 287.314 250.01 286.178 245.612C284.715 239.954 282.612 236.417 282.612 236.417L286.598 205.473C286.598 205.473 287.03 232.753 288.261 239.712C289.239 245.286 289.628 252.266 290.764 261.818C291.848 270.971 293.036 287.094 293.036 287.094C293.057 287.115 293.089 287.125 293.131 287.136V294.756H299.769V290.285C299.769 288.259 299.937 286.243 300.263 284.249C301.273 278.172 303.503 264.232 303.966 259.53C304.681 252.046 301.978 242.651 301.978 242.651C301.978 242.651 303.061 231.872 303.945 222.645Z" fill="#FFDDBF"/>
<path d="M291.627 141.245C291.627 141.245 301.021 142.326 302.146 142.83C293.331 149.012 300.463 162.783 300.463 162.783L297.086 173.343C300.842 178.14 304.092 180.995 306.091 186.264C308.332 192.142 310.331 200.875 309.784 218.761C301.357 225.08 275.764 224.377 265.781 218.761C265.781 218.761 267.464 202.943 269.452 190.652C270.767 182.538 273.87 173.7 273.344 170.74C269.399 158.606 269.147 156.423 269.852 153.714C271.819 146.094 279.603 140.951 281.528 140.951L291.627 141.245Z" fill="#464646"/>
<path d="M293.121 291.481V290.536C292.931 291.985 291.006 296.435 288.376 298.829C286.283 300.739 283.422 302.933 282.696 305.064C281.938 307.278 286.073 308.15 288.776 307.877C291.943 307.562 294.425 305.662 295.593 304.318C297.318 302.345 297.286 301.001 298.086 299.91C298.885 298.829 300.747 297.611 301.179 296.352C301.421 295.659 301.137 294.147 300.8 292.877C300.495 291.702 300.158 290.421 299.759 290.526C299.759 290.673 299.759 291.25 299.759 291.25C299.275 291.786 297.939 292.31 296.434 292.373C295.477 292.405 293.121 292.216 293.121 291.481Z" fill="#373737"/>
<path d="M299.771 291.207C299.287 291.742 297.743 292.221 296.392 292.221C296.054 292.221 294.364 292.221 293.688 291.545L293.121 290.537C292.931 291.985 291.006 296.436 288.376 298.829C287.871 299.28 287.324 299.763 286.777 300.246C285.662 301.484 285.978 302.566 288.597 302.786C291.217 303.006 293.52 301.432 295.509 298.997C297.497 296.572 299.771 291.207 299.771 291.207Z" fill="#FFDDBF"/>
<path d="M275.406 112.589C273.723 113.586 271.64 117.816 271.84 126.676C272.018 134.191 274.459 136.049 275.679 136.584C276.91 137.12 279.266 136.794 281.57 136.416V140.93C281.57 140.93 278.393 144.614 278.593 146.682C278.793 148.75 283.18 149.243 286.146 147.217C289.123 145.202 291.616 141.255 291.616 141.255L291.564 130.885C291.564 130.885 292.921 132.197 295.214 130.192C297.108 128.544 297.749 125.752 296.266 124.261C294.793 122.771 292.069 123.17 291.017 125.301C291.017 125.301 289.744 121.763 284.442 120.031C279.677 118.478 277.078 116.683 275.406 112.589Z" fill="#FFDDBF"/>
<path d="M280.245 124.786C280.213 125.332 280.623 125.783 281.139 125.815C281.665 125.836 282.107 125.416 282.138 124.881C282.17 124.335 281.76 123.883 281.244 123.852C280.718 123.831 280.276 124.251 280.245 124.786Z" fill="#282828"/>
<path d="M279.992 131.157L277.794 131.861C277.973 132.491 278.614 132.837 279.224 132.648C279.834 132.449 280.182 131.787 279.992 131.157Z" fill="#DDB692"/>
<path d="M272.481 121.889L274.396 120.567C274.049 120.021 273.333 119.874 272.807 120.241C272.281 120.598 272.134 121.343 272.481 121.889Z" fill="#282828"/>
<path d="M283.001 122.592L281.086 121.27C281.433 120.724 282.149 120.577 282.675 120.944C283.211 121.301 283.359 122.046 283.001 122.592Z" fill="#282828"/>
<path d="M272.923 124.104C272.892 124.65 273.302 125.101 273.817 125.132C274.343 125.153 274.785 124.734 274.817 124.198C274.848 123.652 274.438 123.201 273.923 123.17C273.397 123.149 272.955 123.568 272.923 124.104Z" fill="#282828"/>
<path d="M277.394 123.569L277.247 129.258L274.238 128.324L277.394 123.569Z" fill="#DDB692"/>
<path d="M281.57 136.406C283.99 136.091 288.976 134.663 289.754 132.701C289.754 132.701 289.491 133.939 288.008 135.209C286.525 136.479 281.57 137.917 281.57 137.917V136.406Z" fill="#DDB692"/>
<path d="M298.717 167.58L292.09 176.544L297.087 173.343L298.717 167.58Z" fill="#FFC000"/>
<path d="M205.556 175.957L206.85 179.725C206.85 179.725 205.903 181.404 201.822 181.488C197.751 181.572 193.417 180.281 192.07 178.549C190.987 177.164 191.313 176.02 191.313 176.02C191.313 176.02 192.933 172.451 194.458 172.608L194.195 174.151C194.195 174.151 194.542 175.421 198.245 176.408C203.989 177.94 205.556 175.957 205.556 175.957Z" fill="#998E6C"/>
<path d="M238.272 201.012C239.913 199.133 240.544 194.966 242.743 192.111C244.888 189.329 245.73 187.167 246.603 188.416C247.75 190.064 245.162 193.37 245.741 193.696C246.309 194.021 248.465 198.377 248.676 200.791C248.896 203.205 242.48 209.283 242.48 209.283L238.272 201.012Z" fill="#F5CCA7"/>
<path d="M205.556 175.957C205.556 175.957 206.282 175.873 206.85 176.702C207.418 177.531 208.575 180.281 208.575 180.281L206.509 179.699L205.556 175.957Z" fill="#998E6C"/>
<path d="M245.551 193.328C245.551 193.328 253.304 192.657 254.44 193.307C255.566 193.958 255.229 197.327 254.44 199.385C253.651 201.442 249.696 202.775 246.025 205.252C246.003 204.895 245.551 193.328 245.551 193.328Z" fill="#F5CCA7"/>
<path d="M246.435 191.386C245.015 193.213 244.142 196.761 243.395 197.957C242.648 199.154 241.754 200.193 243.395 200.413C245.036 200.634 247.434 197.432 248.328 195.491C249.223 193.549 250.716 193.024 250.716 193.024C249.938 192.761 250.348 189.686 249.801 189.256C249.801 189.266 247.014 190.41 246.435 191.386Z" fill="#FFDDBF"/>
<path d="M246.014 205.252C247.497 204.15 247.539 202.796 247.834 200.644C248.129 198.482 254.062 196.173 254.24 197.779C254.43 199.385 254.966 200.728 253.146 202.67C251.327 204.612 248.728 206.69 246.014 205.252Z" fill="#FFDDBF"/>
<path d="M208.586 180.292C211.921 181.446 214.835 182.79 217.948 188.615C221.946 196.11 229.551 208.097 229.551 208.097L238.261 200.424C238.261 200.424 239.576 199.144 242.027 203.195C244.478 207.236 242.922 210.648 242.922 210.648C242.922 210.648 232.865 222.435 230.929 224.23C228.994 226.025 225.817 224.629 223.745 221.805C221.672 218.982 208.586 202.649 208.586 202.649C208.586 202.649 201.443 193.286 208.586 180.292Z" fill="#D3C394"/>
<path d="M291.627 141.245C291.627 141.245 300.421 142 302.146 142.83C303.872 143.648 306.743 148.592 304.166 155.793C301.589 162.993 299.275 171.443 299.527 173.144C299.79 174.844 305.923 183.63 305.923 183.63C304.145 184.774 302.252 185.97 300.284 186.327L297.139 179.483L297.876 186.758C297.876 186.758 292.227 188.122 288.187 187.776C288.187 187.776 285.21 159.876 291.627 141.245Z" fill="#E03B3B"/>
<path d="M313.297 175.516C313.991 171.37 313.307 170.026 311.834 165.964L304.418 170.719C304.418 170.719 305.617 173.773 305.512 175.516C305.449 176.702 303.819 188.563 302.293 192.709C302.02 193.444 301.473 194.042 300.779 194.409C298.927 195.396 298.128 196.488 296.697 197.789C295.571 198.807 294.667 199.028 294.772 199.385C294.919 199.847 295.613 200.623 296.928 200.319C297.591 200.161 298.454 199.721 299.548 199.122C299.548 199.122 298.654 201.253 296.665 203.373C293.962 206.249 293.73 208.118 298.748 208.506C301.894 208.748 304.544 206.984 307.395 200.214C308.216 198.262 308.91 195.218 309.573 192.625C311.098 186.705 312.602 179.683 313.297 175.516Z" fill="#FFDDBF"/>
<path d="M302.146 142.83C305.691 144.415 306.701 147.543 308.006 152.14C309.321 156.737 313.455 170.53 313.455 170.53C313.455 170.53 309.91 174.76 304.997 173.553L298.728 158.259C298.717 158.249 295.772 148.277 302.146 142.83Z" fill="#E03B3B"/>
</g>
<defs>
<linearGradient id="paint0_linear" x1="27.9451" y1="350.278" x2="292.574" y2="232.583" gradientUnits="userSpaceOnUse">
<stop stop-color="#1F1F1F"/>
<stop offset="1" stop-color="#868686"/>
</linearGradient>
</defs>
</svg>
