<svg width="562" height="540" viewBox="0 0 562 540" fill="none" xmlns="http://www.w3.org/2000/svg">
<path d="M474.631 114.758L462.583 107.846L469.214 106.448L475.798 111.046L474.631 114.758Z" fill="#BFBFBF"/>
<path d="M453.555 52.9101C453.539 34.2253 442.114 25.6206 428.073 33.7127L407.308 45.6723C393.252 53.7644 381.827 75.5711 381.827 94.2559C381.827 95.017 381.843 95.778 381.889 96.4925C381.889 96.9118 381.936 97.2691 381.952 97.6574C381.967 98.0301 382.014 98.3874 382.061 98.7446C382.107 99.164 382.154 99.5833 382.216 99.9871C382.543 102.364 383.119 104.507 383.851 106.448C384.178 107.225 384.52 107.955 384.894 108.654C385.065 109.027 385.267 109.384 385.485 109.695C385.547 109.803 385.625 109.912 385.688 110.021C386.046 110.611 386.435 111.186 386.886 111.667C387.135 111.947 387.369 112.242 387.633 112.506L388.427 113.282C388.723 113.5 388.987 113.764 389.268 113.981C389.548 114.199 389.844 114.416 390.155 114.587C390.466 114.758 390.778 114.944 391.089 115.115C392.256 115.768 393.548 116.171 394.902 116.404C395.011 116.404 395.12 116.42 395.214 116.466C395.572 116.498 395.899 116.544 396.257 116.544C396.63 116.591 397.004 116.575 397.393 116.575C398.343 116.591 399.339 116.482 400.366 116.249C400.942 116.125 401.518 116 402.094 115.814V115.845C403.775 115.348 405.503 114.587 407.308 113.546L428.073 101.587C429.443 100.795 430.829 99.8629 432.152 98.8223C432.136 98.5738 432.105 98.3408 432.089 98.1233C432.074 97.6884 432.043 97.3778 432.043 97.1138C431.996 96.4925 431.98 95.8557 431.98 95.2033C431.98 79.1123 441.569 60.4275 453.555 52.9101Z" fill="#BFBFBF"/>
<path d="M457.073 39.4595C457.073 39.4595 444.931 32.4857 445.009 32.5323C445.087 32.5789 446.223 40.904 446.223 40.904L455.189 41.9602L457.073 39.4595Z" fill="#BFBFBF"/>
<path d="M401.331 120.877L390.17 114.572L396.879 111.683L401.331 120.877Z" fill="#BFBFBF"/>
<path d="M407.309 113.515C407.309 116.001 406.608 121.576 403.044 126.314C402.545 126.966 403.308 127.541 403.884 127.261C405.752 126.314 407.916 124.885 410.515 121.918C414.36 117.538 416.819 111.667 417.691 107.536L407.309 113.515Z" fill="#BFBFBF"/>
<path d="M403.184 127.23L415.247 134.157C415.247 134.157 422.018 128.457 422.018 116.917L408.927 116.016C408.927 116.016 408.616 123.533 403.184 127.23Z" fill="#BFBFBF"/>
<path d="M435.312 93.2773C435.312 93.852 435.327 94.4112 435.358 94.9548C435.358 95.2654 435.389 95.5294 435.405 95.8401C435.42 96.1197 435.452 96.3837 435.483 96.6477C435.514 96.9584 435.545 97.269 435.592 97.5797C435.794 99.0552 436.121 100.422 436.557 101.633C436.619 101.882 436.712 102.099 436.806 102.332C436.915 102.643 437.039 102.954 437.195 103.233C437.335 103.528 437.46 103.808 437.615 104.072C437.755 104.352 437.895 104.616 438.067 104.849C438.113 104.957 438.16 105.035 438.222 105.097C438.503 105.532 438.798 105.936 439.125 106.324C439.312 106.557 439.499 106.759 439.686 106.945L440.277 107.536C440.479 107.737 440.697 107.893 440.915 108.064C441.133 108.235 441.351 108.39 441.585 108.514C441.818 108.638 442.036 108.794 442.285 108.902C442.519 109.027 442.752 109.135 443.001 109.244C443.25 109.337 443.499 109.446 443.748 109.524C443.764 109.539 443.764 109.539 443.764 109.539C444.215 109.679 444.682 109.788 445.149 109.865C445.227 109.881 445.305 109.896 445.383 109.912C445.632 109.943 445.896 109.974 446.161 109.974C446.426 110.021 446.706 110.005 447.001 109.99C447.64 110.005 448.293 109.927 448.994 109.788C449.492 109.726 450.006 109.586 450.519 109.43C451.78 109.058 453.103 108.483 454.426 107.706L470.008 98.729C471.362 97.9524 472.654 97.036 473.915 95.9488V95.9333C474.351 95.576 474.787 95.1722 475.207 94.7684C475.97 94.0695 476.717 93.2773 477.433 92.4386C477.713 92.128 477.993 91.8018 478.289 91.4446C478.554 91.1339 478.803 90.8078 479.067 90.4816C479.13 90.3729 479.223 90.2642 479.301 90.171C480.313 88.8352 481.278 87.4218 482.165 85.9152C482.398 85.5114 482.632 85.1231 482.865 84.7193C483.099 84.3155 483.317 83.9116 483.535 83.4923C483.753 83.0729 483.955 82.6535 484.173 82.2497L484.764 80.9761C484.967 80.5567 485.153 80.1063 485.325 79.7025C485.652 78.957 485.963 78.1804 486.228 77.4348C486.274 77.2951 486.321 77.1553 486.383 77.0155C486.554 76.5806 486.695 76.1457 486.835 75.7108C487.115 74.8566 487.364 74.0334 487.613 73.1636C488.158 71.0823 488.594 68.97 488.843 66.9042C488.889 66.547 488.92 66.1898 488.952 65.8481C488.983 65.5375 489.014 65.2268 489.029 64.9317C489.045 64.6055 489.076 64.3104 489.076 63.9998C489.107 63.4251 489.123 62.8349 489.123 62.2602C489.123 48.235 480.546 41.7582 469.992 47.8311L454.411 56.8085C443.888 62.866 435.312 79.2365 435.312 93.2773Z" fill="#BFBFBF"/>
<path d="M494.711 53.811L482.741 46.9459L478.227 50.1144L492.189 58.5482L494.711 53.811Z" fill="#BFBFBF"/>
<path d="M453.617 115.426L441.584 108.514L451.017 105.703L453.617 115.426Z" fill="#BFBFBF"/>
<path d="M467.657 100.111C467.657 102.596 470.77 105.982 474.319 106.619C474.818 106.712 474.677 107.769 474.117 108.126C472.249 109.322 469.743 109.57 467.159 109.275C463.003 108.825 460.917 106.992 459.688 104.693L467.657 100.111Z" fill="#ABD5FD"/>
<path d="M440.121 40.6244L419.341 52.5839C405.285 60.676 393.875 82.4827 393.875 101.168C393.875 101.944 393.891 102.69 393.937 103.404C393.937 103.823 393.984 104.181 394 104.569C394.031 104.942 394.077 105.299 394.124 105.656C394.171 106.076 394.217 106.495 394.28 106.899C394.622 109.275 395.198 111.419 395.93 113.345C396.257 114.137 396.599 114.851 396.973 115.55C397.144 115.923 397.346 116.28 397.564 116.591C397.642 116.715 397.704 116.808 397.766 116.917C398.124 117.507 398.514 118.066 398.949 118.563C399.199 118.827 399.432 119.138 399.712 119.386L400.522 120.179C400.802 120.38 401.066 120.66 401.347 120.877C401.642 121.079 401.923 121.312 402.234 121.483C402.545 121.639 402.857 121.825 403.168 121.996C404.335 122.648 405.612 123.067 406.966 123.285C407.09 123.269 407.184 123.3 407.277 123.347C407.635 123.378 407.978 123.425 408.32 123.425C408.709 123.471 409.083 123.456 409.456 123.456C410.422 123.456 411.418 123.347 412.43 123.13C413.005 122.99 413.581 122.881 414.173 122.679V122.71C415.854 122.229 417.582 121.452 419.372 120.427C419.372 122.912 418.671 128.488 415.107 133.225C414.609 133.878 415.372 134.452 415.947 134.173C417.815 133.225 419.979 131.796 422.578 128.83C426.423 124.45 428.883 118.579 429.754 114.447L428.26 115.302L440.137 108.452C441.242 107.815 442.363 107.085 443.452 106.278C443.359 105.874 443.297 105.47 443.25 105.082C443.203 104.818 443.157 104.429 443.125 104.025C443.079 103.73 443.032 103.373 443.016 102.985L443.001 102.798C442.97 102.534 442.954 102.286 442.954 102.006C442.923 101.432 442.908 100.81 442.908 100.189C442.908 84.4708 452.278 66.749 464.264 59.8684L465.587 59.0918C465.276 40.904 453.975 32.641 440.121 40.6244Z" fill="#E7E7E7"/>
<path d="M482.071 54.7274L466.49 63.7048C455.936 69.7777 447.359 86.1483 447.359 100.174C447.359 100.748 447.375 101.307 447.406 101.851C447.406 102.162 447.437 102.426 447.453 102.736C447.468 103.016 447.499 103.28 447.531 103.544C447.562 103.855 447.593 104.165 447.64 104.476C447.842 105.951 448.169 107.318 448.605 108.53C448.667 108.778 448.76 108.996 448.854 109.229C448.963 109.539 449.087 109.85 449.243 110.129C449.383 110.425 449.507 110.704 449.663 110.968C449.803 111.248 449.943 111.512 450.115 111.745C450.161 111.854 450.208 111.931 450.27 111.993C450.55 112.428 450.846 112.832 451.173 113.22C451.36 113.453 451.547 113.655 451.733 113.842L452.325 114.432C452.527 114.634 452.745 114.789 452.963 114.96C453.181 115.131 453.399 115.286 453.632 115.41C453.866 115.535 454.084 115.69 454.333 115.799C454.566 115.923 454.8 116.032 455.049 116.14C455.298 116.234 455.547 116.342 455.796 116.42C455.812 116.435 455.812 116.435 455.812 116.435C456.263 116.575 456.73 116.684 457.197 116.762C457.275 116.777 457.353 116.793 457.43 116.808C457.68 116.839 457.944 116.87 458.209 116.87C458.473 116.917 458.754 116.901 459.065 116.886C459.703 116.901 460.357 116.824 461.057 116.684C461.555 116.622 462.069 116.482 462.583 116.327C463.844 115.954 465.167 115.379 466.49 114.603L471.736 111.574C472.965 113.873 475.051 115.705 479.207 116.156C481.791 116.435 484.297 116.202 486.165 115.006C486.741 114.649 486.866 113.578 486.367 113.5C482.803 112.863 479.705 109.477 479.705 106.992L482.071 105.625C483.425 104.849 484.717 103.917 485.978 102.845V102.83C486.414 102.472 486.85 102.068 487.27 101.665C488.033 100.966 488.78 100.174 489.496 99.3349C489.776 99.0242 490.057 98.698 490.352 98.3408C490.617 98.0302 490.866 97.704 491.131 97.3778C491.193 97.2691 491.286 97.1604 491.364 97.0672C492.376 95.7315 493.341 94.3181 494.228 92.8115C494.462 92.4076 494.695 92.0193 494.929 91.6155C495.162 91.2117 495.38 90.8079 495.598 90.3885C495.816 89.9692 496.018 89.5498 496.236 89.146L496.828 87.8723C497.03 87.453 497.217 87.0026 497.388 86.5987C497.715 85.8532 498.026 85.0766 498.291 84.3311C498.338 84.1913 498.384 84.0515 498.447 83.9117C498.618 83.4768 498.758 83.0419 498.898 82.607C499.178 81.7528 499.427 80.9296 499.676 80.0598C500.221 77.9786 500.657 75.8662 500.906 73.8005C500.953 73.4433 500.984 73.086 501.015 72.7443C501.046 72.4337 501.077 72.1231 501.093 71.8279C501.108 71.5018 501.139 71.2067 501.139 70.896C501.171 70.3214 501.186 69.7311 501.186 69.1565C501.202 55.1312 492.609 48.6544 482.071 54.7274Z" fill="#E7E7E7"/>
<path d="M25.9482 77.9459V47.1618H25.9638C25.8704 41.1976 29.7619 35.2334 37.6538 30.6825C53.2508 21.7051 78.5298 21.7051 94.1268 30.6825C102.019 35.2334 105.91 41.1976 105.817 47.1618V77.8217C105.879 83.7549 101.988 94.3631 94.1268 98.8829C78.5298 107.86 53.2508 107.86 37.6538 98.8829C29.8708 94.3942 25.9794 83.8636 25.9638 77.9925V77.977C25.9482 77.977 25.9482 77.9615 25.9482 77.9459Z" fill="#DCDCDC"/>
<path d="M65.8904 9L131.781 46.9598L65.8904 84.9197L0 46.9598L65.8904 9Z" fill="#D5D5D5"/>
<path d="M32.9062 65.9243L65.3611 47.4414C65.9215 47.1308 66.6219 47.3171 66.9488 47.8763C67.2601 48.4354 67.0733 49.1344 66.513 49.4605L35.2411 67.26L32.9062 65.9243Z" fill="#ABD5FD"/>
<path d="M131.781 46.9598V49.6624L65.8904 87.6222V84.9197L131.781 46.9598Z" fill="#858585"/>
<path d="M0 46.9598V49.6624L65.8903 87.6222V84.9197L0 46.9598Z" fill="#DCDCDC"/>
<path d="M31.272 67.6948L33.28 68.8597C33.5757 68.3782 33.996 67.9588 34.5097 67.6637L35.2102 67.2599L32.922 65.9397C32.2526 66.4057 31.6923 66.9959 31.272 67.6948Z" fill="#ABD5FD"/>
<path d="M32.9063 65.9243L65.3612 47.4414C65.9215 47.1308 66.622 47.3171 66.9489 47.8763C67.2602 48.4354 67.0734 49.1344 66.513 49.4605L35.2412 67.26L32.9063 65.9243Z" fill="#AEAEAE"/>
<path d="M31.272 67.6949L33.28 68.8598C33.5757 68.3783 33.996 67.959 34.5097 67.6639L35.2102 67.26L32.922 65.9398C32.2526 66.4058 31.6923 66.996 31.272 67.6949Z" fill="#AEAEAE"/>
<path d="M105.895 64.5885L65.8905 91.6916L25.9951 64.6351L65.8905 87.6223L105.895 64.5885Z" fill="#ABD5FD"/>
<path d="M105.895 64.5885L65.8905 91.6916L25.9951 64.6351L65.8905 87.6223L105.895 64.5885Z" fill="#AEAEAE"/>
<path d="M28.719 99.6594C29.4817 100.234 31.4586 100.265 32.3458 99.6594L35.3033 118.81C35.3033 122.429 25.886 122.429 25.886 118.81L28.719 99.6594Z" fill="#D5D5D5"/>
<path d="M28.5478 110.578L27.9563 121.093C27.754 121.016 27.5672 120.938 27.3804 120.845L28.5478 110.578Z" fill="#AEAEAE"/>
<path d="M32.9997 121.171L31.7544 104.102L33.6067 120.938C33.4199 121.031 33.2176 121.109 32.9997 121.171Z" fill="#AEAEAE"/>
<path d="M30.8825 121.513C30.6802 121.513 30.4934 121.513 30.291 121.513L30.5868 107.953L30.8825 121.513Z" fill="#AEAEAE"/>
<path d="M30.4934 101.259C31.1316 101.259 31.7854 101.042 32.408 100.607C32.9372 100.25 33.0618 99.5197 32.7038 98.9916C32.3457 98.4635 31.6141 98.3392 31.0849 98.6965C30.5868 99.0382 30.3066 98.976 29.9797 98.7275C29.466 98.3392 28.7344 98.448 28.3609 98.9605C27.9717 99.4731 28.0807 100.203 28.5944 100.576C29.2014 101.026 29.8396 101.259 30.4934 101.259Z" fill="#8B8B8B"/>
<path d="M30.5869 98.2771C31.2251 98.2771 31.7387 97.7645 31.7387 97.1277V69.978C31.7387 68.7355 32.4081 67.5861 33.4821 66.9804L66.4973 48.1869C67.0577 47.8762 67.2445 47.1618 66.9332 46.6026C66.6219 46.0435 65.9058 45.8571 65.3455 46.1677L32.3303 64.9613C30.5246 65.9864 29.4194 67.9123 29.4194 69.978V97.1277C29.435 97.749 29.9487 98.2771 30.5869 98.2771Z" fill="#858585"/>
<path d="M33.1397 97.1123C33.1397 95.7144 32.0033 94.5806 30.6024 94.5806C29.2015 94.5806 28.0652 95.7144 28.0652 97.1123C28.0652 98.5102 29.2015 99.644 30.6024 99.644C31.9878 99.6595 33.1397 98.5102 33.1397 97.1123Z" fill="#D5D5D5"/>
<path d="M28.0652 97.252C28.2053 97.8577 29.4661 99.0226 30.8982 98.215C32.4392 97.3607 32.1434 95.4037 30.9449 94.6116C32.1746 94.7824 33.1397 95.8386 33.1397 97.1122C33.1397 98.5101 32.0033 99.6439 30.6024 99.6439C29.2326 99.6594 28.143 98.5877 28.0652 97.252Z" fill="#AEAEAE"/>
<path d="M113.471 428.827C110.296 412.426 98.9639 389.05 85.0636 376.035C71.6925 363.516 51.846 359.152 43.9386 364.914C36.0311 370.676 41.2145 383.179 56.5625 398.401C73.8717 415.563 107.152 463.184 113.471 490.178V428.827Z" fill="#696969"/>
<path d="M113.471 468.294C113.082 468.294 112.74 467.999 112.693 467.595C108.77 426.265 79.8179 379.825 51.955 370.148C51.5503 370.008 51.3323 369.558 51.4724 369.154C51.6125 368.75 52.0639 368.533 52.4686 368.673C81.3278 378.691 110.202 424.836 114.25 467.44C114.296 467.859 113.969 468.247 113.549 468.278C113.518 468.278 113.487 468.294 113.471 468.294Z" fill="white"/>
<path d="M113.471 509.981C113.471 509.981 108.086 514.268 90.107 512.591C72.1284 510.913 62.8822 498.099 62.8822 492.601C62.8822 487.103 79.3821 486.171 82.9778 472.534C82.9778 472.534 78.5726 478.063 69.202 479.818C59.8313 481.574 52.3597 478.591 50.2272 461.6C50.2272 461.6 56.5625 462.827 63.9563 460.466C71.3501 458.089 73.109 454.051 71.1788 453.181C69.2487 452.312 58.9596 453.259 52.3441 450.681C45.7442 448.102 50.8654 413.886 55.1149 411.447C59.3643 408.993 79.9113 414.756 83.8962 417.831C87.4452 420.565 92.4263 425.302 90.0603 435.32C90.0603 435.32 93.7805 432.198 96.2399 426.187C98.1701 421.465 99.571 422.615 102.497 424.385C105.424 426.156 108.63 429.371 109.331 433.72C110.031 438.069 108.895 453.073 102.762 457.95C102.762 457.95 108.646 458.695 113.456 448.786C113.456 448.786 122.842 452.545 124.912 458.649C126.983 464.753 129.442 494.527 113.471 509.981Z" fill="#C4C4C4"/>
<path d="M115.043 513.383C114.654 513.383 114.327 513.088 114.265 512.699C110.156 479.135 84.5811 435.118 59.5044 418.483C59.1464 418.25 59.053 417.769 59.2865 417.412C59.52 417.054 60.0026 416.961 60.3606 417.194C85.7485 434.046 111.65 478.591 115.791 512.529C115.837 512.948 115.542 513.336 115.106 513.398C115.106 513.383 115.075 513.383 115.043 513.383Z" fill="white"/>
<path d="M116.631 518.074C114.888 517.064 113.471 514.517 113.471 512.373V141.302C113.471 139.159 114.981 136.549 116.849 135.478L350.368 0.940603C352.236 -0.131095 355.147 -0.193223 356.906 0.816348C358.649 1.82592 360.066 4.37314 360.066 6.51654V377.573C360.066 379.716 358.556 382.325 356.688 383.397L123.153 517.934C121.301 519.021 118.375 519.068 116.631 518.074Z" fill="#BEBEBE"/>
<path d="M119.791 148.353L214.634 86.4279L208.314 82.7935L116.849 135.493C114.981 136.565 113.471 139.174 113.471 141.317V144.719L119.791 148.353Z" fill="#373737"/>
<path d="M151.405 159.272L114.452 137.994C113.845 139.05 113.471 140.23 113.471 141.302V512.358C113.471 514.501 114.888 517.049 116.631 518.058C118.375 519.068 121.301 519.006 123.169 517.934L151.405 501.656V159.272Z" fill="#313131"/>
<path d="M123.169 517.949L356.704 383.413C358.572 382.341 360.082 379.731 360.082 377.588V6.53215C360.082 4.38875 358.572 3.51897 356.704 4.59067L123.153 139.112C121.286 140.184 119.776 142.793 119.776 144.936V515.992C119.791 518.151 121.301 519.021 123.169 517.949Z" fill="#282828"/>
<path d="M123.169 517.949L356.704 383.413C358.572 382.341 360.082 379.731 360.082 377.588V6.53215C360.082 4.38875 358.572 3.51897 356.704 4.59067L123.153 139.112C121.286 140.184 119.776 142.793 119.776 144.936V515.992C119.791 518.151 121.301 519.021 123.169 517.949Z" fill="url(#paint0_linear)"/>
<path d="M164.045 134.026C146.58 143.857 132.431 168.32 132.431 188.667C132.431 209.014 146.58 217.354 164.045 207.305C181.51 197.24 195.659 172.778 195.659 152.664C195.659 132.55 181.51 124.21 164.045 134.026Z" fill="white"/>
<mask id="mask0" mask-type="alpha" maskUnits="userSpaceOnUse" x="132" y="129" width="64" height="83">
<path d="M164.045 134.026C146.58 143.857 132.431 168.32 132.431 188.667C132.431 209.014 146.58 217.354 164.045 207.305C181.51 197.24 195.659 172.778 195.659 152.664C195.659 132.55 181.51 124.21 164.045 134.026Z" fill="#F5F5F5"/>
</mask>
<g mask="url(#mask0)">
<path d="M179.361 192.743L154.067 199.515C152.074 200.043 150.471 198.754 150.471 196.626V153.634C150.471 146.583 155.81 139.454 162.395 137.683L171.049 135.369C177.634 133.614 182.973 137.885 182.973 144.936V187.929C182.973 190.056 181.354 192.215 179.361 192.743Z" fill="#252525"/>
<path d="M180.592 203.864L177.883 192.138C177.883 192.138 177.914 176.311 175.611 174.851C173.322 173.391 172.7 173.111 172.7 173.111C175.595 172.117 181.697 171.356 183.627 176.917C185.448 182.166 188.172 195.104 189.464 201.488L180.592 203.864Z" fill="#F28F8F"/>
<path d="M180.374 203.926L171.361 173.251C175.362 171.698 180.483 170.409 182.973 174.525C185.215 178.221 188.795 197.574 189.495 201.488L180.374 203.926Z" fill="#E03B3B"/>
<path d="M181.588 203.6L172.715 205.977C173.307 202.855 174.194 200.137 175.19 198.77C178.49 194.312 182.46 193.303 182.46 193.303C182.46 193.303 181.432 198.459 181.588 203.6Z" fill="#2343BA"/>
<path d="M179.673 204.113L154.846 210.745L152.09 202.264C152.09 202.264 159.36 185.288 150.378 180.939C151.53 180.085 161.088 176.342 161.088 176.342L171.377 173.266C173.338 172.738 181.261 176.249 183.269 184.03C183.985 186.795 183.736 189.249 179.704 203.569C179.704 203.74 179.689 203.926 179.673 204.113Z" fill="#353535"/>
<path d="M177.634 140.634C179.346 141.255 181.479 145.309 181.261 155.048C181.09 163.295 178.599 165.998 177.354 166.914C176.109 167.83 173.696 168.125 171.361 168.327V173.251C171.361 173.251 174.599 176.404 174.396 178.718C174.194 181.032 169.727 182.756 166.691 181.359C163.671 179.961 161.119 176.342 161.119 176.342L161.165 165.004C161.165 165.004 159.78 166.805 157.445 165.236C155.515 163.947 154.861 161.089 156.371 159.055C157.881 157.02 160.652 156.725 161.71 158.76C161.71 158.76 163.018 154.551 168.403 151.227C173.276 148.229 175.922 145.558 177.634 140.634Z" fill="#FFDBBA"/>
<path d="M172.7 155.281C172.731 155.871 172.326 156.477 171.781 156.647C171.252 156.818 170.801 156.477 170.77 155.902C170.738 155.312 171.143 154.706 171.688 154.535C172.217 154.364 172.669 154.69 172.7 155.281Z" fill="#252525"/>
<path d="M172.949 162.161L175.19 162.332C175.003 163.062 174.349 163.621 173.727 163.575C173.12 163.528 172.762 162.907 172.949 162.161Z" fill="#DDB692"/>
<path d="M180.607 150L178.661 149.068C179.019 148.369 179.751 148.027 180.28 148.276C180.809 148.54 180.965 149.301 180.607 150Z" fill="#252525"/>
<path d="M169.882 153.634L171.828 151.662C171.47 151.165 170.738 151.196 170.209 151.739C169.68 152.283 169.524 153.122 169.882 153.634Z" fill="#252525"/>
<path d="M180.156 152.547C180.187 153.137 179.782 153.743 179.237 153.914C178.708 154.085 178.257 153.743 178.226 153.168C178.194 152.578 178.599 151.972 179.144 151.801C179.673 151.615 180.125 151.957 180.156 152.547Z" fill="#252525"/>
<path d="M175.595 153.168L175.751 159.334L178.817 157.502L175.595 153.168Z" fill="#DDB692"/>
<path d="M171.346 168.327C168.886 168.638 163.796 168.436 163.018 166.51C163.018 166.51 163.282 167.784 164.792 168.778C166.302 169.756 171.346 169.974 171.346 169.974V168.327Z" fill="#DDB692"/>
<path d="M154.924 210.729L153.881 207.033L156.62 210.279L154.924 210.729Z" fill="#FFC000"/>
<path d="M152.884 211.273C152.308 207.825 150.394 201.286 148.323 195.648C145.708 188.488 148.635 182.306 150.378 180.939C152.137 179.572 161.087 176.342 161.087 176.342C164.325 185.552 165.212 197.853 165.29 207.949L153 212L152.884 211.273Z" fill="#E03B3B"/>
<path d="M148.464 212.453L139.575 214.83C139.124 214.504 138.875 214.255 138.875 214.255C138.875 214.255 143.078 198.071 144.416 192.697C145.755 187.323 146.782 183.626 150.394 180.939C156.885 185.148 153.88 196.844 153.88 196.844L148.464 212.453Z" fill="#E03B3B"/>
</g>
<path d="M139.171 230.657L195.239 198.35C198.959 196.207 201.979 197.729 201.979 201.752C201.979 205.775 198.959 210.776 195.239 212.919L139.171 245.226C135.45 247.369 132.431 245.847 132.431 241.824C132.431 237.801 135.45 232.8 139.171 230.657Z" fill="#D0D0D0"/>
<path d="M139.171 253.582L176.28 232.21C180 230.066 183.02 231.589 183.02 235.611C183.02 239.634 180 244.635 176.28 246.779L139.171 268.151C135.45 270.294 132.431 268.772 132.431 264.749C132.431 260.726 135.45 255.725 139.171 253.582Z" fill="#D0D0D0"/>
<path d="M135.139 292.815L142.393 288.637C143.887 287.783 145.086 288.482 145.086 290.19V298.546C145.086 300.255 143.872 302.352 142.393 303.206L135.139 307.384C133.645 308.238 132.446 307.539 132.446 305.831V297.475C132.431 295.766 133.645 293.669 135.139 292.815Z" fill="white"/>
<path d="M154.783 285.142L198.632 259.888C200.5 258.816 202.01 259.577 202.01 261.596C202.01 263.615 200.5 266.1 198.632 267.188L154.783 292.442C152.915 293.514 151.406 292.753 151.406 290.734C151.406 288.715 152.915 286.214 154.783 285.142Z" fill="#7A7A7A"/>
<path d="M135.139 321.953L142.393 317.775C143.887 316.921 145.086 317.62 145.086 319.328V327.684C145.086 329.393 143.872 331.489 142.393 332.344L135.139 336.522C133.645 337.376 132.446 336.677 132.446 334.969V326.612C132.431 324.904 133.645 322.823 135.139 321.953Z" fill="white"/>
<path d="M154.783 314.28L198.632 289.025C200.5 287.954 202.01 288.715 202.01 290.734C202.01 292.753 200.5 295.238 198.632 296.325L154.783 321.58C152.915 322.652 151.406 321.891 151.406 319.872C151.406 317.853 152.915 315.352 154.783 314.28Z" fill="#7A7A7A"/>
<path d="M135.139 351.091L142.393 346.913C143.887 346.058 145.086 346.757 145.086 348.466V356.822C145.086 358.53 143.872 360.627 142.393 361.481L135.139 365.66C133.645 366.514 132.446 365.815 132.446 364.106V355.75C132.431 354.042 133.645 351.96 135.139 351.091Z" fill="white"/>
<path d="M154.783 343.418L198.632 318.163C200.5 317.091 202.01 317.853 202.01 319.872C202.01 321.891 200.5 324.376 198.632 325.463L154.783 350.718C152.915 351.79 151.406 351.029 151.406 349.009C151.406 346.99 152.915 344.49 154.783 343.418Z" fill="#7A7A7A"/>
<path d="M135.139 380.322L142.393 376.144C143.887 375.289 145.086 375.988 145.086 377.697V386.053C145.086 387.762 143.872 389.858 142.393 390.713L135.139 394.891C133.645 395.745 132.446 395.046 132.446 393.337V384.981C132.431 383.257 133.645 381.176 135.139 380.322Z" fill="white"/>
<path d="M154.783 372.633L198.632 347.379C200.5 346.307 202.01 347.068 202.01 349.087C202.01 351.106 200.5 353.591 198.632 354.679L154.783 379.933C152.915 381.005 151.406 380.244 151.406 378.225C151.406 376.206 152.915 373.705 154.783 372.633Z" fill="#7A7A7A"/>
<path d="M135.139 409.459L142.393 405.281C143.887 404.427 145.086 405.126 145.086 406.835V415.191C145.086 416.899 143.872 418.996 142.393 419.85L135.139 424.028C133.645 424.883 132.446 424.184 132.446 422.475V414.119C132.431 412.395 133.645 410.314 135.139 409.459Z" fill="white"/>
<path d="M154.783 401.771L198.632 376.516C200.5 375.445 202.01 376.206 202.01 378.225C202.01 380.244 200.5 382.729 198.632 383.816L154.783 409.071C152.915 410.143 151.406 409.382 151.406 407.363C151.406 405.343 152.915 402.843 154.783 401.771Z" fill="#7A7A7A"/>
<path d="M135.808 438.131L167.002 420.161C168.87 419.089 170.38 419.85 170.38 421.869C170.38 423.888 168.87 426.374 167.002 427.461L135.808 445.431C133.941 446.503 132.431 445.742 132.431 443.723C132.431 441.704 133.941 439.203 135.808 438.131Z" fill="#7A7A7A"/>
<path d="M135.808 452.7L198.617 416.511C200.485 415.439 201.995 416.2 201.995 418.219C201.995 420.238 200.485 422.724 198.617 423.811L135.808 460C133.941 461.072 132.431 460.311 132.431 458.292C132.431 456.272 133.941 453.772 135.808 452.7Z" fill="#565656"/>
<path d="M135.808 452.7L179.657 427.445C181.525 426.374 183.02 427.135 183.02 429.154C183.02 431.173 181.51 433.674 179.642 434.745L135.793 460C133.925 461.072 132.415 460.311 132.415 458.292C132.431 456.272 133.94 453.772 135.808 452.7Z" fill="white"/>
<path d="M135.808 467.253L167.002 449.283C168.87 448.211 170.38 448.972 170.38 450.992C170.38 453.011 168.87 455.496 167.002 456.583L135.808 474.553C133.941 475.625 132.431 474.864 132.431 472.845C132.431 470.826 133.941 468.325 135.808 467.253Z" fill="#7A7A7A"/>
<path d="M135.808 481.822L198.617 445.633C200.485 444.561 201.995 445.323 201.995 447.342C201.995 449.361 200.485 451.846 198.617 452.933L135.808 489.122C133.941 490.194 132.431 489.433 132.431 487.414C132.431 485.395 133.941 482.894 135.808 481.822Z" fill="#565656"/>
<path d="M135.808 481.822L192.297 449.283C194.165 448.211 195.659 448.972 195.659 450.992C195.659 453.011 194.149 455.511 192.281 456.583L135.793 489.122C133.925 490.194 132.415 489.433 132.415 487.414C132.431 485.395 133.94 482.894 135.808 481.822Z" fill="white"/>
<path d="M356.688 4.59067L214.634 86.428V465.25L356.688 383.413C358.556 382.341 360.05 379.731 360.05 377.588V6.53215C360.066 4.38875 358.556 3.51897 356.688 4.59067Z" fill="#E8E8E8"/>
<path d="M214.634 100.997V130.135L201.995 144.703H214.634V173.841L347.411 97.3468V24.5024L214.634 100.997Z" fill="#7D7D7D"/>
<path d="M232.006 102.006L285.801 71.0203C288.401 69.5137 290.518 70.7407 290.518 73.7383V73.8005C290.518 76.7981 288.401 80.4481 285.801 81.9547L232.006 112.941C229.406 114.447 227.289 113.22 227.289 110.223V110.161C227.274 107.163 229.391 103.513 232.006 102.006Z" fill="white"/>
<path d="M228.97 125.522L333.09 65.5375C334.024 64.9939 334.771 65.3822 334.771 66.3918C334.771 67.4014 334.024 68.6439 333.09 69.1875L228.97 129.172C228.036 129.715 227.289 129.327 227.289 128.317C227.289 127.308 228.036 126.05 228.97 125.522Z" fill="white"/>
<path d="M228.97 136.44L333.09 76.472C334.024 75.9284 334.771 76.3167 334.771 77.3262C334.771 78.3358 334.024 79.5784 333.09 80.122L228.97 140.106C228.036 140.65 227.289 140.261 227.289 139.252C227.289 138.242 228.036 136.984 228.97 136.44Z" fill="white"/>
<path d="M228.97 147.375L333.09 87.3909C334.024 86.8473 334.771 87.2356 334.771 88.2452C334.771 89.2548 334.024 90.4973 333.09 91.0409L228.97 151.025C228.036 151.569 227.289 151.18 227.289 150.171C227.289 149.161 228.036 147.919 228.97 147.375Z" fill="white"/>
<path d="M232.893 177.926L240.146 173.748C241.641 172.894 242.839 173.593 242.839 175.301V183.657C242.839 185.366 241.625 187.463 240.146 188.317L232.893 192.495C231.398 193.349 230.2 192.65 230.2 190.942V182.586C230.184 180.877 231.398 178.796 232.893 177.926Z" fill="#7D7D7D"/>
<path d="M252.537 170.253L296.386 144.999C298.254 143.927 299.764 144.688 299.764 146.707C299.764 148.726 298.254 151.211 296.386 152.298L252.537 177.553C250.669 178.625 249.175 177.864 249.175 175.845C249.159 173.826 250.669 171.325 252.537 170.253Z" fill="#B4B4B4"/>
<path d="M231.881 204.02L342.321 140.386C343.255 139.842 344.002 140.23 344.002 141.24C344.002 142.249 343.255 143.492 342.321 144.036L231.881 207.67C230.947 208.213 230.2 207.825 230.2 206.815C230.2 205.806 230.947 204.563 231.881 204.02Z" fill="#B4B4B4"/>
<path d="M231.881 214.954L342.321 151.32C343.255 150.776 344.002 151.165 344.002 152.174C344.002 153.184 343.255 154.426 342.321 154.97L231.881 218.604C230.947 219.148 230.2 218.759 230.2 217.75C230.184 216.74 230.947 215.482 231.881 214.954Z" fill="#B4B4B4"/>
<path d="M231.881 225.888L342.321 162.254C343.255 161.711 344.002 162.099 344.002 163.109C344.002 164.118 343.255 165.361 342.321 165.904L231.881 229.538C230.947 230.082 230.2 229.694 230.2 228.684C230.184 227.675 230.947 226.417 231.881 225.888Z" fill="#B4B4B4"/>
<path d="M231.881 236.838L342.321 173.204C343.255 172.661 344.002 173.049 344.002 174.059C344.002 175.068 343.255 176.311 342.321 176.854L231.881 240.488C230.947 241.032 230.2 240.644 230.2 239.634C230.184 238.625 230.947 237.382 231.881 236.838Z" fill="#B4B4B4"/>
<path d="M232.893 258.07L240.146 253.892C241.641 253.038 242.839 253.737 242.839 255.446V263.802C242.839 265.51 241.625 267.607 240.146 268.461L232.893 272.639C231.398 273.494 230.2 272.795 230.2 271.086V262.73C230.184 261.006 231.398 258.925 232.893 258.07Z" fill="#7D7D7D"/>
<path d="M252.537 250.398L296.386 225.143C298.254 224.071 299.764 224.832 299.764 226.851C299.764 228.871 298.254 231.356 296.386 232.443L252.537 257.698C250.669 258.769 249.175 258.008 249.175 255.989C249.159 253.97 250.669 251.469 252.537 250.398Z" fill="#B4B4B4"/>
<path d="M231.881 284.164L342.321 220.53C343.255 219.986 344.002 220.375 344.002 221.384C344.002 222.394 343.255 223.636 342.321 224.18L231.881 287.814C230.947 288.358 230.2 287.969 230.2 286.96C230.2 285.95 230.947 284.708 231.881 284.164Z" fill="#B4B4B4"/>
<path d="M231.881 295.098L342.321 231.464C343.255 230.921 344.002 231.309 344.002 232.319C344.002 233.328 343.255 234.571 342.321 235.114L231.881 298.748C230.947 299.292 230.2 298.904 230.2 297.894C230.2 296.885 230.947 295.626 231.881 295.098Z" fill="#B4B4B4"/>
<path d="M231.881 306.017L342.321 242.383C343.255 241.84 344.002 242.228 344.002 243.238C344.002 244.247 343.255 245.49 342.321 246.033L231.881 309.667C230.947 310.211 230.2 309.823 230.2 308.813C230.2 307.804 230.947 306.561 231.881 306.017Z" fill="#B4B4B4"/>
<path d="M231.881 316.983L342.321 253.349C343.255 252.805 344.002 253.193 344.002 254.203C344.002 255.213 343.255 256.455 342.321 256.999L231.881 320.633C230.947 321.176 230.2 320.788 230.2 319.778C230.184 318.769 230.947 317.511 231.881 316.983Z" fill="#B4B4B4"/>
<path d="M232.893 338.199L240.146 334.021C241.641 333.167 242.839 333.866 242.839 335.574V343.93C242.839 345.639 241.625 347.736 240.146 348.59L232.893 352.768C231.398 353.622 230.2 352.923 230.2 351.215V342.859C230.184 341.15 231.398 339.069 232.893 338.199Z" fill="#7D7D7D"/>
<path d="M252.537 330.526L296.386 305.272C298.254 304.2 299.764 304.961 299.764 306.98C299.764 308.999 298.254 311.484 296.386 312.572L252.537 337.826C250.669 338.898 249.175 338.137 249.175 336.118C249.175 334.099 250.669 331.598 252.537 330.526Z" fill="#B4B4B4"/>
<path d="M231.881 364.308L342.321 300.674C343.255 300.131 344.002 300.519 344.002 301.529C344.002 302.538 343.255 303.781 342.321 304.324L231.881 367.958C230.947 368.502 230.2 368.114 230.2 367.104C230.2 366.095 230.947 364.836 231.881 364.308Z" fill="#B4B4B4"/>
<path d="M231.881 375.227L342.321 311.593C343.255 311.05 344.002 311.438 344.002 312.447C344.002 313.457 343.255 314.7 342.321 315.243L231.881 378.877C230.947 379.421 230.2 379.032 230.2 378.023C230.2 377.013 230.947 375.771 231.881 375.227Z" fill="#B4B4B4"/>
<path d="M231.881 386.162L342.321 322.528C343.255 321.984 344.002 322.372 344.002 323.382C344.002 324.391 343.255 325.634 342.321 326.178L231.881 389.812C230.947 390.355 230.2 389.967 230.2 388.957C230.2 387.948 230.947 386.69 231.881 386.162Z" fill="#B4B4B4"/>
<path d="M231.881 397.111L342.321 333.477C343.255 332.934 344.002 333.322 344.002 334.332C344.002 335.341 343.255 336.584 342.321 337.127L231.881 400.761C230.947 401.305 230.2 400.917 230.2 399.907C230.184 398.898 230.947 397.655 231.881 397.111Z" fill="#B4B4B4"/>
<path d="M243.213 408.76L250.467 404.582C251.961 403.728 253.16 404.427 253.16 406.136V414.492C253.16 416.2 251.945 418.297 250.467 419.151L243.213 423.329C241.719 424.184 240.52 423.485 240.52 421.776V413.42C240.52 411.711 241.734 409.615 243.213 408.76Z" fill="#7D7D7D"/>
<path d="M231.881 437.153L261.814 419.912C262.748 419.369 263.495 419.757 263.495 420.767C263.495 421.776 262.748 423.019 261.814 423.562L231.881 440.803C230.947 441.346 230.2 440.958 230.2 439.948C230.184 438.939 230.947 437.681 231.881 437.153Z" fill="#B4B4B4"/>
<path d="M283.466 385.556L290.72 381.378C292.214 380.524 293.413 381.222 293.413 382.931V391.287C293.413 392.996 292.199 395.092 290.72 395.947L283.466 400.125C281.972 400.979 280.773 400.28 280.773 398.571V390.215C280.773 388.491 281.988 386.41 283.466 385.556Z" fill="#7D7D7D"/>
<path d="M272.134 413.948L302.067 396.708C303.001 396.164 303.749 396.552 303.749 397.562C303.749 398.572 303.001 399.814 302.067 400.358L272.134 417.598C271.2 418.142 270.453 417.753 270.453 416.744C270.453 415.734 271.2 414.476 272.134 413.948Z" fill="#B4B4B4"/>
<path d="M323.735 362.336L330.989 358.158C332.483 357.303 333.682 358.002 333.682 359.711V368.067C333.682 369.775 332.468 371.872 330.989 372.726L323.735 376.905C322.241 377.759 321.042 377.06 321.042 375.351V366.995C321.027 365.287 322.241 363.206 323.735 362.336Z" fill="#7D7D7D"/>
<path d="M312.388 390.728L342.321 373.488C343.255 372.944 344.002 373.332 344.002 374.342C344.002 375.351 343.255 376.594 342.321 377.138L312.388 394.378C311.454 394.922 310.707 394.533 310.707 393.524C310.707 392.514 311.454 391.272 312.388 390.728Z" fill="#B4B4B4"/>
<path d="M379.834 539.896C419.302 539.896 451.297 524.681 451.297 505.912C451.297 487.143 419.302 471.928 379.834 471.928C340.367 471.928 308.372 487.143 308.372 505.912C308.372 524.681 340.367 539.896 379.834 539.896Z" fill="#D2D2D2"/>
<path d="M357.015 260.183C351.116 258.35 345.076 263.103 341.122 272.701C337.168 282.3 328.872 306.701 327.642 313.224C326.428 319.732 354.244 333.897 353.466 333.524C352.688 333.136 357.015 260.183 357.015 260.183Z" fill="#998E6C"/>
<path d="M344.08 486.109C343.255 486.42 343.037 488.004 342.912 491.141C342.819 493.518 342.305 497.665 345.091 498.488C347.878 499.311 351.971 498.892 353.746 496.655C355.972 493.859 357.482 491.405 360.673 487.988C363.428 485.037 366.417 482.273 367.537 478.126C368.549 474.382 367.709 472.752 365.14 471.664C361.622 470.173 356.081 475.066 353.31 475.827C350.944 476.495 344.905 485.783 344.08 486.109Z" fill="#383838"/>
<path d="M344.08 483.189V487.041C344.08 487.041 348.096 490.116 353.839 487.305C354.011 486.932 354.851 481.791 354.851 481.791L344.08 483.189Z" fill="#F5CCA7"/>
<path d="M375.352 508.32C375.352 508.32 374.246 511.674 373.639 514.61C373.172 516.94 372.487 520.838 373.297 522.593C374.122 524.348 377.297 525.482 382.247 525.436C385.454 525.405 390.435 527.579 393.859 529.489C397.393 531.462 404.724 532.239 408.46 531.804C412.865 531.291 417.426 528.744 418.127 526.927C418.843 525.11 417.893 523.215 407.526 518.819C407.433 518.773 393.112 514.128 388.1 508.615L375.352 508.32Z" fill="#383838"/>
<path d="M375.352 504.142C375.352 504.142 375.367 506.999 375.352 508.63C375.336 510.261 377.266 512.7 382.278 512.529C385.796 512.405 388.256 511.457 388.116 508.568V504.406L375.352 504.142Z" fill="#F5CCA7"/>
<path d="M341.558 432.043C343.332 419.446 346.119 411.976 346.119 411.976C346.119 411.976 344.733 394.658 344.08 378.24C343.364 360.503 344.111 338.215 343.784 333.788C343.784 333.788 401.144 322.201 402.171 342.704C403.199 363.206 399.914 415.393 399.229 424.401C398.545 433.41 396.988 441.377 395.12 455.977C393.283 470.391 388.115 504.406 388.115 504.406C381.562 507.947 375.351 504.142 375.351 504.142C375.351 504.142 371.32 463.138 371.74 452.747C372.254 440.057 375.694 430.055 375.694 430.055C375.694 430.055 374.604 413.156 373.639 398.447C372.674 383.739 371.662 376.672 371.444 370.288L370.215 369.682C370.215 369.682 368.954 395.046 368.285 404.054C367.6 413.063 366.168 421.699 363.553 438.426C361.28 452.933 354.54 483.655 354.54 483.655C347.987 487.196 344.08 483.189 344.08 483.189C344.08 483.189 339.799 444.639 341.558 432.043Z" fill="#414141"/>
<path d="M371.445 370.304C371.445 370.304 357.529 363.454 350.571 357.288C350.571 357.288 357.031 366.374 365.53 370.412C365.53 370.412 368.549 401.926 368.534 401.305L370.277 370.257L371.445 370.304Z" fill="#232323"/>
<path d="M383.835 253.69L380.442 272.329L363.568 271.102L367.102 249.963L383.835 253.69Z" fill="#F5CCA7"/>
<path d="M345.745 269.735C347.411 264.671 353.855 259.158 360.315 260.354C372.16 262.544 381.562 264.904 388.551 267.39C394.451 269.486 399.836 274.581 400.319 293.965L403.308 351.681L396.163 353.219L393.672 340.141L392.505 353.219C385.033 355.098 372.083 353.545 363.552 351.681C345.807 347.813 343.675 340.467 343.675 340.467C343.675 340.467 343.441 307.99 343.971 293.949C344.438 282.036 344.593 273.214 345.745 269.735Z" fill="#D3C394"/>
<path d="M396.319 231.604C396.319 231.604 400.397 237.646 399.884 238.283C399.37 238.935 396.817 239.634 396.817 239.634L396.319 231.604Z" fill="#F5CCA7"/>
<path d="M383.835 212.469C387.773 214.457 394.575 218.123 396.443 232.49C398.374 247.245 395.836 251.998 393.828 253.955C392.474 255.275 385.143 255.352 381.469 254.25C376.861 252.867 366.479 248.938 361.747 241.358C356.174 232.443 354.929 220.499 361.218 215.746C370.059 209.067 380.504 210.792 383.835 212.469Z" fill="#F5CCA7"/>
<path d="M397.268 217.408C395.977 220.949 393.797 229.616 384.738 233.235C384.738 233.235 383.446 227.721 378.792 228.296C374.106 228.886 373.344 234.804 376.208 238.485C379.072 242.15 381.843 240.83 381.843 240.83C381.843 240.83 382.465 248.751 377.173 252.339C377.173 252.339 370.775 256.377 364.004 253.271C360.953 251.873 356.642 244.589 354.12 238.609C348.765 225.966 348.003 215.824 356.097 212.624C357.093 206.877 359.677 204.718 364.907 203.647C376.13 201.333 384.613 208.695 394.046 207.406C398.918 206.722 398.747 213.37 397.268 217.408Z" fill="#282828"/>
<path d="M355.894 214.55L350.602 211.273C351.505 209.813 353.435 209.363 354.898 210.263C356.346 211.18 356.797 213.09 355.894 214.55Z" fill="#282828"/>
<path d="M506.432 462.392C536.882 462.392 561.566 450.654 561.566 436.174C561.566 421.694 536.882 409.956 506.432 409.956C475.982 409.956 451.297 421.694 451.297 436.174C451.297 450.654 475.982 462.392 506.432 462.392Z" fill="#D2D2D2"/>
<path d="M483.425 237.941H520.176C523.072 237.941 525.406 235.611 525.406 232.722V174.447C525.406 164.895 517.655 157.16 508.082 157.16H495.52C485.947 157.16 478.195 164.895 478.195 174.447V232.722C478.195 235.611 480.53 237.941 483.425 237.941Z" fill="#252525"/>
<path d="M477.23 218.045C473.65 228.544 467.688 258.692 467.688 258.692C467.688 258.692 455.173 273.897 451.173 277.563C448.947 279.613 443.935 283.294 443.935 283.294L453.041 289.988C461.462 283.76 471.486 274.208 476.141 269.238C477.728 267.545 478.849 265.479 479.363 263.227L485.589 236.574C485.589 236.574 485.542 215.14 488.889 212.329C492.22 209.518 493.107 208.928 493.107 208.928C488.905 208.617 480.032 209.813 477.23 218.045Z" fill="#FFDDBF"/>
<path d="M495.069 208.617C489.263 207.949 481.822 208.073 478.195 214.55C474.568 221.027 468.529 254.436 468.529 254.436C468.529 254.436 474.241 258.862 480.406 258.785L495.069 208.617Z" fill="#E03B3B"/>
<path d="M478.927 239.805C478.927 239.805 480.655 247.447 480.141 255.011C479.674 261.705 475.051 273.431 475.051 273.431C475.051 273.431 478.678 277.408 488.905 275.808C497.232 274.503 494.29 249.435 489.496 244.573C484.702 239.727 478.927 239.805 478.927 239.805Z" fill="#BA3535"/>
<path d="M498.167 417.194C498.213 418.188 498.12 418.934 497.342 420.456C496.408 422.289 493.886 425.426 491.956 427.507C489.076 430.598 484.764 434.248 481.667 436.951C479.955 438.442 479.877 440.709 482.336 441.502C484.796 442.294 490.228 442.635 495.863 439.622C498.929 437.976 503.303 430.381 505.856 429.216C508.798 427.896 510.448 427.228 511.429 425.876C512.907 423.857 513.297 422.351 512.02 419.99C510.635 417.427 508.564 413.451 507.708 413.901L507.973 414.725C507.304 416.821 501.575 419.26 498.634 418.685L498.167 417.194Z" fill="#373737"/>
<path d="M528.177 329.548C529.516 315.523 533.298 293.079 529.407 276.445L477.744 279.178C476.312 295.595 474.662 346.85 476.421 352.722C478.507 359.649 497.139 407.596 498.166 417.241C498.104 418.965 498 419 497.5 420C496.566 421.817 493.886 425.442 491.94 427.538C490.539 429.045 488.796 430.676 487.021 432.26C486.85 432.54 486.772 432.788 486.772 433.006C486.772 434.605 490.679 435.04 492.983 434.372C495.785 433.549 498.166 431.437 500.065 428.952C501.388 427.197 504.362 423.811 506.229 421.295C507.039 420.238 507.646 419.338 507.864 418.747C508.533 417.086 508.346 415.921 508.097 415.113L507.973 414.74C506.961 411.587 506.338 408.341 506.105 405.048C505.389 394.471 503.568 370.04 501.887 363.532C499.723 355.16 496.61 349.926 496.61 349.926L502.509 304.138C502.509 304.138 503.147 344.505 504.969 354.803C506.416 363.05 506.992 373.379 508.673 387.513C510.277 401.057 512.035 424.914 512.035 424.914C512.067 424.945 512.113 424.96 512.176 424.976V436.252H521.998V429.635C521.998 426.638 522.247 423.655 522.729 420.704C524.224 411.711 527.524 391.085 528.208 384.127C529.267 373.053 525.266 359.152 525.266 359.152C525.266 359.152 526.87 343.2 528.177 329.548Z" fill="#FFDDBF"/>
<path d="M509.95 209.098C509.95 209.098 523.85 210.698 525.516 211.444C512.472 220.592 523.025 240.97 523.025 240.97L518.029 256.595C523.586 263.693 528.395 267.918 531.353 275.715C534.668 284.412 537.626 297.335 536.816 323.801C524.348 333.151 486.477 332.111 471.705 323.801C471.705 323.801 474.195 300.395 477.137 282.207C479.083 270.201 483.675 257.123 482.896 252.743C477.059 234.788 476.686 231.558 477.729 227.55C480.639 216.274 492.158 208.664 495.007 208.664L509.95 209.098Z" fill="#464646"/>
<path d="M512.16 431.406V430.008C511.88 432.151 509.031 438.737 505.14 442.278C502.042 445.105 497.808 448.351 496.734 451.504C495.613 454.781 501.731 456.07 505.731 455.667C510.417 455.201 514.09 452.389 515.818 450.401C518.371 447.481 518.324 445.493 519.507 443.878C520.69 442.278 523.445 440.476 524.084 438.613C524.442 437.587 524.021 435.351 523.523 433.471C523.072 431.732 522.574 429.837 521.982 429.992C521.982 430.21 521.982 431.064 521.982 431.064C521.266 431.856 519.289 432.633 517.063 432.726C515.647 432.773 512.16 432.493 512.16 431.406Z" fill="#373737"/>
<path d="M522 431C521.284 431.792 519 432.5 517 432.5C516.5 432.5 514 432.5 513 431.5L512.16 430.008C511.88 432.151 509.031 438.737 505.14 442.278C504.393 442.946 503.583 443.661 502.774 444.375C501.124 446.208 501.591 447.808 505.467 448.134C509.343 448.46 512.752 446.13 515.694 442.527C518.636 438.939 522 431 522 431Z" fill="#FFDDBF"/>
<path d="M485.947 166.697C483.456 168.172 480.374 174.431 480.67 187.54C480.935 198.661 484.546 201.41 486.352 202.202C488.173 202.994 491.66 202.513 495.069 201.954V208.633C495.069 208.633 490.368 214.084 490.663 217.144C490.959 220.204 497.45 220.934 501.84 217.936C506.245 214.954 509.934 209.114 509.934 209.114L509.856 193.769C509.856 193.769 511.864 195.71 515.258 192.743C518.059 190.305 519.009 186.173 516.814 183.968C514.635 181.762 510.603 182.353 509.047 185.506C509.047 185.506 507.163 180.271 499.318 177.709C492.267 175.41 488.422 172.754 485.947 166.697Z" fill="#FFDDBF"/>
<path d="M493.108 184.745C493.061 185.552 493.668 186.22 494.431 186.267C495.209 186.298 495.863 185.676 495.909 184.884C495.956 184.077 495.349 183.409 494.586 183.362C493.808 183.331 493.154 183.952 493.108 184.745Z" fill="#282828"/>
<path d="M492.734 194.172L489.48 195.213C489.745 196.145 490.695 196.657 491.597 196.378C492.5 196.083 493.014 195.104 492.734 194.172Z" fill="#DDB692"/>
<path d="M481.62 180.458L484.453 178.501C483.939 177.693 482.881 177.476 482.102 178.019C481.324 178.547 481.106 179.65 481.62 180.458Z" fill="#282828"/>
<path d="M497.186 181.498L494.353 179.541C494.866 178.734 495.925 178.516 496.703 179.06C497.497 179.588 497.715 180.691 497.186 181.498Z" fill="#282828"/>
<path d="M482.274 183.735C482.227 184.543 482.834 185.21 483.597 185.257C484.375 185.288 485.029 184.667 485.075 183.875C485.122 183.067 484.515 182.399 483.752 182.353C482.974 182.321 482.32 182.943 482.274 183.735Z" fill="#282828"/>
<path d="M488.889 182.943L488.671 191.361L484.219 189.979L488.889 182.943Z" fill="#DDB692"/>
<path d="M495.069 201.938C498.649 201.472 506.027 199.36 507.179 196.456C507.179 196.456 506.79 198.288 504.595 200.168C502.4 202.047 495.069 204.175 495.069 204.175V201.938Z" fill="#DDB692"/>
<path d="M520.441 248.068L510.635 261.332L518.028 256.595L520.441 248.068Z" fill="#FFC000"/>
<path d="M382.59 260.462L384.504 266.038C384.504 266.038 383.103 268.523 377.064 268.648C371.04 268.772 364.627 266.861 362.634 264.299C361.031 262.248 361.513 260.555 361.513 260.555C361.513 260.555 363.911 255.275 366.168 255.508L365.778 257.791C365.778 257.791 366.292 259.67 371.771 261.13C380.27 263.398 382.59 260.462 382.59 260.462Z" fill="#998E6C"/>
<path d="M431 297.537C433.428 294.757 434.362 288.59 437.615 284.366C440.79 280.25 442.036 277.05 443.328 278.899C445.024 281.337 441.195 286.23 442.051 286.711C442.892 287.193 446.083 293.638 446.394 297.211C446.721 300.783 437.226 309.776 437.226 309.776L431 297.537Z" fill="#F5CCA7"/>
<path d="M382.59 260.462C382.59 260.462 383.664 260.338 384.504 261.565C385.345 262.792 387.057 266.861 387.057 266.861L384 266L382.59 260.462Z" fill="#998E6C"/>
<path d="M441.771 286.167C441.771 286.167 453.243 285.173 454.924 286.136C456.59 287.099 456.092 292.085 454.924 295.129C453.757 298.174 447.904 300.146 442.471 303.812C442.44 303.284 441.771 286.167 441.771 286.167Z" fill="#F5CCA7"/>
<path d="M443.079 283.294C440.977 285.997 439.685 291.246 438.58 293.017C437.475 294.788 436.152 296.325 438.58 296.651C441.008 296.978 444.557 292.24 445.881 289.367C447.204 286.494 449.414 285.717 449.414 285.717C448.262 285.329 448.869 280.778 448.06 280.141C448.06 280.157 443.935 281.85 443.079 283.294Z" fill="#FFDDBF"/>
<path d="M442.456 303.812C444.651 302.181 444.713 300.177 445.149 296.993C445.585 293.794 454.364 290.377 454.629 292.753C454.909 295.129 455.703 297.117 453.01 299.991C450.317 302.864 446.472 305.94 442.456 303.812Z" fill="#FFDDBF"/>
<path d="M387.073 266.877C392.007 268.585 396.319 270.574 400.926 279.194C406.841 290.283 418.095 308.021 418.095 308.021L430.984 296.667C430.984 296.667 432.93 294.772 436.557 300.767C440.183 306.747 437.88 311.795 437.88 311.795C437.88 311.795 422.999 329.237 420.135 331.893C417.27 334.549 412.57 332.484 409.503 328.305C406.437 324.127 387.073 299.96 387.073 299.96C387.073 299.96 376.503 286.105 387.073 266.877Z" fill="#D3C394"/>
<path d="M509.95 209.098C509.95 209.098 522.963 210.217 525.515 211.444C528.068 212.655 532.318 219.971 528.504 230.626C524.69 241.28 521.266 253.784 521.64 256.3C522.029 258.816 531.104 271.816 531.104 271.816C528.473 273.509 525.671 275.28 522.76 275.808L518.106 265.681L519.196 276.445C519.196 276.445 510.837 278.464 504.86 277.951C504.86 277.951 500.454 236.667 509.95 209.098Z" fill="#E03B3B"/>
<path d="M542.015 259.81C543.042 253.675 542.031 251.687 539.851 245.676L528.878 252.712C528.878 252.712 530.652 257.232 530.496 259.81C530.403 261.565 527.99 279.116 525.733 285.251C525.329 286.338 524.519 287.224 523.492 287.767C520.752 289.227 519.569 290.842 517.452 292.768C515.787 294.275 514.448 294.601 514.604 295.129C514.822 295.813 515.849 296.962 517.795 296.512C518.775 296.279 520.052 295.626 521.671 294.741C521.671 294.741 520.347 297.894 517.406 301.031C513.405 305.287 513.063 308.052 520.488 308.626C525.142 308.984 529.064 306.374 533.283 296.356C534.497 293.467 535.524 288.963 536.505 285.127C538.762 276.367 540.988 265.976 542.015 259.81Z" fill="#FFDDBF"/>
<path d="M525.515 211.444C530.761 213.789 532.255 218.418 534.186 225.22C536.131 232.023 542.249 252.432 542.249 252.432C542.249 252.432 537.003 258.692 529.734 256.905L520.456 234.276C520.441 234.26 516.082 219.505 525.515 211.444Z" fill="#E03B3B"/>
<defs>
<linearGradient id="paint0_linear" x1="119.776" y1="518.408" x2="511.352" y2="344.253" gradientUnits="userSpaceOnUse">
<stop stop-color="#1F1F1F"/>
<stop offset="1" stop-color="#868686"/>
</linearGradient>
</defs>
</svg>
