<svg width="16" height="16" viewBox="0 0 16 16" fill="none" xmlns="http://www.w3.org/2000/svg">
<path fill-rule="evenodd" clip-rule="evenodd" d="M15.0768 0H0.923214C0.415446 0 0 0.45 0 1C0 1.55 0.415446 2 0.923214 2H15.0768C15.5846 2 16 1.55 16 1C16 0.45 15.5846 0 15.0768 0Z" fill="#282828"/>
<path fill-rule="evenodd" clip-rule="evenodd" d="M15.0768 7H0.923214C0.415446 7 0 7.45 0 8C0 8.55 0.415446 9 0.923214 9H15.0768C15.5846 9 16 8.55 16 8C16 7.45 15.5846 7 15.0768 7Z" fill="#282828"/>
<path fill-rule="evenodd" clip-rule="evenodd" d="M15.0768 14H0.923214C0.415446 14 0 14.45 0 15C0 15.55 0.415446 16 0.923214 16H15.0768C15.5846 16 16 15.55 16 15C16 14.45 15.5846 14 15.0768 14Z" fill="#282828"/>
</svg>
