<svg width="22" height="24" viewBox="0 0 22 24" fill="none" xmlns="http://www.w3.org/2000/svg">
<path d="M8.4187 7.49884L8.4187 7.49884C8.57418 7.22471 8.56884 6.80957 8.42542 6.31016C8.28337 5.81553 8.01193 5.25989 7.66751 4.7234C7.32337 4.18735 6.90888 3.67435 6.48383 3.26449C6.05708 2.85298 5.62698 2.55253 5.25256 2.43093L5.28345 2.33582L5.25269 2.43097C4.51802 2.19345 3.8568 2.39398 3.33456 2.96848C2.78483 3.57321 2.38801 4.59669 2.24932 5.96391L8.4187 7.49884ZM8.4187 7.49884C8.33169 7.65228 8.23927 7.77824 8.14392 7.88314C7.86213 8.19313 7.54728 8.32643 7.23663 8.44296C7.21098 8.45258 7.18522 8.46212 7.15941 8.47168C6.87815 8.57584 6.59094 8.6822 6.37396 8.92089C6.30671 8.99487 6.24661 9.08064 6.19487 9.18232L6.28399 9.22767L6.19494 9.18217C6.12737 9.31443 6.1122 9.47342 6.13091 9.64409C6.14968 9.81529 6.20334 10.0059 6.282 10.2083C6.43933 10.6129 6.70228 11.0783 7.01277 11.5523C7.63429 12.501 8.45665 13.4995 9.04062 14.1418C9.62464 14.7842 10.5325 15.689 11.3955 16.3731C11.8265 16.7148 12.2506 17.0048 12.6203 17.1788C12.8051 17.2658 12.9807 17.3258 13.1398 17.347C13.299 17.3682 13.4495 17.3513 13.5745 17.2742L13.5747 17.2741M8.4187 7.49884L13.5747 17.2741M13.5747 17.2741C13.6671 17.2168 13.7451 17.1507 13.8119 17.0771M13.5747 17.2741L13.8119 17.0771M13.8119 17.0771C14.028 16.8395 14.1236 16.5265 14.2182 16.2169M13.8119 17.0771L14.2182 16.2169M14.2182 16.2169C14.2269 16.1884 14.2356 16.16 14.2444 16.1316M14.2182 16.2169L14.2444 16.1316M14.2444 16.1316C14.3509 15.7876 14.4732 15.4382 14.7565 15.1266M14.2444 16.1316L14.7565 15.1266M14.7565 15.1266C14.8515 15.022 14.9653 14.9211 15.1036 14.8259M14.7565 15.1266L15.1036 14.8259M15.1036 14.8259C15.3456 14.6604 15.7137 14.6641 16.1656 14.8212C16.6127 14.9767 17.1165 15.2742 17.6039 15.6528C18.0907 16.0308 18.5568 16.4864 18.9294 16.9539C19.303 17.4227 19.5776 17.8974 19.689 18.3133C19.9084 19.1333 19.7208 19.8698 19.1975 20.4456C18.6487 21.0492 17.7225 21.4837 16.4851 21.636C15.227 21.7892 13.8482 21.3121 12.3427 20.3097C10.8383 19.3081 9.21906 17.7898 7.48454 15.8819C5.75 13.974 4.36924 12.1927 3.45798 10.5368C2.54649 8.88042 2.1093 7.35779 2.24931 5.96401L15.1036 14.8259ZM0.934566 5.81704L0.934556 5.81715C0.625902 8.89147 2.37517 12.3122 6.5397 16.893C8.6241 19.1857 10.4432 20.8115 12.09 21.8223C13.7378 22.8336 15.2192 23.2328 16.624 23.0616L16.6241 23.0616C18.1242 22.8774 19.3418 22.3236 20.1361 21.4498C21.0065 20.4923 21.3054 19.1983 20.9592 17.9043C20.7222 17.0189 20.0787 16.093 19.3049 15.3103C18.5304 14.5269 17.6145 13.8761 16.8191 13.5466C15.6368 13.0568 14.8551 13.3046 14.4036 13.6137L14.4035 13.6138C14.1859 13.7632 13.9892 13.9338 13.818 14.1221C13.2981 14.694 13.1004 15.3257 12.9646 15.7683L12.9645 15.7685C12.3188 15.391 11.1337 14.3924 9.98626 13.1303C8.82752 11.8557 7.9123 10.5378 7.57648 9.83077L7.58386 9.82801L7.58412 9.82791L7.58745 9.82667C7.99025 9.67699 8.55704 9.46637 9.08318 8.88758C9.25488 8.6987 9.40991 8.48238 9.54467 8.24451C9.82255 7.75456 10.0474 6.90538 9.60698 5.61485C9.30926 4.74233 8.71902 3.73529 8.00648 2.88227C7.29561 2.03126 6.45154 1.31983 5.64018 1.05642L5.64013 1.0564C4.45191 0.671432 3.26732 1.00562 2.39609 1.96404C1.60217 2.8374 1.10135 4.17303 0.934566 5.81704Z" fill="#282828" stroke="#282828" stroke-width="0.2"/>
</svg>
