<svg width="175" height="528" viewBox="0 0 175 528" fill="none" xmlns="http://www.w3.org/2000/svg">
<path d="M61.2432 140.719C79.2698 92.4179 121.663 57.3854 172.486 48.7906L461 0V528L121.56 473.329C31.5551 458.833 -22.6817 365.588 9.20116 280.161L61.2432 140.719Z" fill="#C4C4C4"/>
<path d="M61.2432 140.719C79.2698 92.4179 121.663 57.3854 172.486 48.7906L461 0V528L121.56 473.329C31.5551 458.833 -22.6817 365.588 9.20116 280.161L61.2432 140.719Z" fill="#282828"/>
<path d="M61.2432 140.719C79.2698 92.4179 121.663 57.3854 172.486 48.7906L461 0V528L121.56 473.329C31.5551 458.833 -22.6817 365.588 9.20116 280.161L61.2432 140.719Z" fill="url(#paint0_linear)"/>
<defs>
<linearGradient id="paint0_linear" x1="-18.7281" y1="528" x2="519.744" y2="498.798" gradientUnits="userSpaceOnUse">
<stop stop-color="#C84F4F"/>
<stop offset="1" stop-color="#EC3939"/>
</linearGradient>
</defs>
</svg>
