<svg width="703" height="804" viewBox="0 0 703 804" fill="none" xmlns="http://www.w3.org/2000/svg">
<path d="M94.1385 214.276C121.594 140.727 186.163 87.3823 263.571 74.2948L703 0V804L186.006 720.751C48.9211 698.677 -33.686 556.691 14.8742 426.609L94.1385 214.276Z" fill="#C4C4C4"/>
<path d="M94.1385 214.276C121.594 140.727 186.163 87.3823 263.571 74.2948L703 0V804L186.006 720.751C48.9211 698.677 -33.686 556.691 14.8742 426.609L94.1385 214.276Z" fill="#282828"/>
<path d="M94.1385 214.276C121.594 140.727 186.163 87.3823 263.571 74.2948L703 0V804L186.006 720.751C48.9211 698.677 -33.686 556.691 14.8742 426.609L94.1385 214.276Z" fill="url(#paint0_linear)"/>
<defs>
<linearGradient id="paint0_linear" x1="-27.6643" y1="804" x2="792.471" y2="759.513" gradientUnits="userSpaceOnUse">
<stop stop-color="#C84F4F"/>
<stop offset="1" stop-color="#EC3939"/>
</linearGradient>
</defs>
</svg>
