<svg width="36" height="36" viewBox="0 0 36 36" fill="none" xmlns="http://www.w3.org/2000/svg">
<path fill-rule="evenodd" clip-rule="evenodd" d="M36 18C36 27.9411 27.9411 36 18 36C8.05888 36 0 27.9411 0 18C0 8.05888 8.05888 0 18 0C27.9411 0 36 8.05888 36 18ZM12.0537 16.3512C10.2505 17.1384 8.39784 17.9474 6.70372 18.8805L6.7036 18.8806C5.81899 19.5283 6.99482 19.9864 8.09782 20.4161C8.27318 20.4845 8.4467 20.5521 8.6098 20.6196C8.74552 20.6613 8.88355 20.7053 9.02342 20.7498C10.2502 21.1407 11.6181 21.5765 12.809 20.9209C14.7655 19.797 16.6118 18.4977 18.4567 17.1994C19.0611 16.774 19.6654 16.3487 20.2733 15.9298C20.3018 15.9116 20.334 15.8907 20.3691 15.868C20.887 15.5322 22.0518 14.7772 21.621 15.8176C20.6021 16.9318 19.5108 17.9181 18.4136 18.9098C17.6742 19.5781 16.932 20.2489 16.2075 20.9629C15.5764 21.4756 14.9212 22.5066 15.6278 23.2246C17.2552 24.3639 18.9081 25.4755 20.56 26.5866C21.0975 26.9481 21.635 27.3096 22.1714 27.6719C23.0806 28.3978 24.5014 27.8107 24.7013 26.6764C24.7902 26.1546 24.8795 25.6327 24.9687 25.1109C25.4619 22.2274 25.9552 19.343 26.3911 16.4501C26.4503 15.9964 26.5174 15.5426 26.5846 15.0886C26.7474 13.9883 26.9105 12.8866 26.9614 11.7803C26.8301 10.6764 25.4916 10.9191 24.7466 11.1673C20.9177 12.6243 17.1271 14.1892 13.3514 15.7818C12.9237 15.9713 12.4901 16.1606 12.0537 16.3512Z" fill="white"/>
</svg>
