<svg width="36" height="36" viewBox="0 0 36 36" fill="none" xmlns="http://www.w3.org/2000/svg">
<path fill-rule="evenodd" clip-rule="evenodd" d="M18 0C8.05887 0 0 8.05887 0 18C0 27.9411 8.05887 36 18 36C27.9411 36 36 27.9411 36 18C36 8.05887 27.9411 0 18 0ZM25.5012 11.812C26.3274 12.0387 26.978 12.7067 27.1988 13.5549C27.6 15.0923 27.6 18.3 27.6 18.3C27.6 18.3 27.6 21.5076 27.1988 23.0451C26.978 23.8934 26.3274 24.5613 25.5012 24.7881C24.004 25.2 18 25.2 18 25.2C18 25.2 11.996 25.2 10.4987 24.7881C9.67256 24.5613 9.02194 23.8934 8.80114 23.0451C8.40001 21.5076 8.40001 18.3 8.40001 18.3C8.40001 18.3 8.40001 15.0923 8.80114 13.5549C9.02194 12.7067 9.67256 12.0387 10.4987 11.812C11.996 11.4 18 11.4 18 11.4C18 11.4 24.004 11.4 25.5012 11.812Z" fill="white"/>
<path d="M16.2 21.6001V15.6001L21 18.6002L16.2 21.6001Z" fill="white"/>
</svg>
